<svg xmlns="http://www.w3.org/2000/svg" version="1.1" xmlns:xlink="http://www.w3.org/1999/xlink" xmlns:svgjs="http://svgjs.dev/svgjs" viewBox="0 0 800 800" opacity="1" width="800" height="800"><g stroke-width="2" stroke="hsla(0, 0%, 0%, 1)" fill="none"><rect width="33.333333333333336" height="4.789473684210526" x="-16.666666666666668" y="-2.394736842105263" stroke="none" fill="hsla(0, 0%, 0%, 1)" rx="2.394736842105263" transform="rotate(45, 0, 0)"></rect><rect width="4.789473684210526" height="33.333333333333336" x="-2.394736842105263" y="-16.666666666666668" stroke="none" fill="hsla(0, 0%, 0%, 1)" rx="2.394736842105263" transform="rotate(45, 0, 0)"></rect><rect width="33.333333333333336" height="4.789473684210526" x="56.06060606060606" y="-2.394736842105263" stroke="none" fill="hsla(0, 0%, 0%, 1)" rx="2.394736842105263" transform="rotate(45, 72.72727272727273, 0)"></rect><rect width="4.789473684210526" height="33.333333333333336" x="70.33253588516747" y="-16.666666666666668" stroke="none" fill="hsla(0, 0%, 0%, 1)" rx="2.394736842105263" transform="rotate(45, 72.72727272727273, 0)"></rect><rect width="33.333333333333336" height="4.789473684210526" x="128.7878787878788" y="-2.394736842105263" stroke="none" fill="hsla(0, 0%, 0%, 1)" rx="2.394736842105263" transform="rotate(45, 145.45454545454547, 0)"></rect><rect width="4.789473684210526" height="33.333333333333336" x="143.0598086124402" y="-16.666666666666668" stroke="none" fill="hsla(0, 0%, 0%, 1)" rx="2.394736842105263" transform="rotate(45, 145.45454545454547, 0)"></rect><rect width="33.333333333333336" height="4.789473684210526" x="201.51515151515153" y="-2.394736842105263" stroke="none" fill="hsla(0, 0%, 0%, 1)" rx="2.394736842105263" transform="rotate(45, 218.1818181818182, 0)"></rect><rect width="4.789473684210526" height="33.333333333333336" x="215.78708133971293" y="-16.666666666666668" stroke="none" fill="hsla(0, 0%, 0%, 1)" rx="2.394736842105263" transform="rotate(45, 218.1818181818182, 0)"></rect><rect width="33.333333333333336" height="4.789473684210526" x="274.24242424242425" y="-2.394736842105263" stroke="none" fill="hsla(0, 0%, 0%, 1)" rx="2.394736842105263" transform="rotate(45, 290.90909090909093, 0)"></rect><rect width="4.789473684210526" height="33.333333333333336" x="288.5143540669857" y="-16.666666666666668" stroke="none" fill="hsla(0, 0%, 0%, 1)" rx="2.394736842105263" transform="rotate(45, 290.90909090909093, 0)"></rect><rect width="33.333333333333336" height="4.789473684210526" x="346.969696969697" y="-2.394736842105263" stroke="none" fill="hsla(0, 0%, 0%, 1)" rx="2.394736842105263" transform="rotate(45, 363.6363636363637, 0)"></rect><rect width="4.789473684210526" height="33.333333333333336" x="361.2416267942584" y="-16.666666666666668" stroke="none" fill="hsla(0, 0%, 0%, 1)" rx="2.394736842105263" transform="rotate(45, 363.6363636363637, 0)"></rect><rect width="33.333333333333336" height="4.789473684210526" x="419.69696969696975" y="-2.394736842105263" stroke="none" fill="hsla(0, 0%, 0%, 1)" rx="2.394736842105263" transform="rotate(45, 436.36363636363643, 0)"></rect><rect width="4.789473684210526" height="33.333333333333336" x="433.96889952153117" y="-16.666666666666668" stroke="none" fill="hsla(0, 0%, 0%, 1)" rx="2.394736842105263" transform="rotate(45, 436.36363636363643, 0)"></rect><rect width="33.333333333333336" height="4.789473684210526" x="492.4242424242425" y="-2.394736842105263" stroke="none" fill="hsla(0, 0%, 0%, 1)" rx="2.394736842105263" transform="rotate(45, 509.0909090909092, 0)"></rect><rect width="4.789473684210526" height="33.333333333333336" x="506.6961722488039" y="-16.666666666666668" stroke="none" fill="hsla(0, 0%, 0%, 1)" rx="2.394736842105263" transform="rotate(45, 509.0909090909092, 0)"></rect><rect width="33.333333333333336" height="4.789473684210526" x="565.1515151515152" y="-2.394736842105263" stroke="none" fill="hsla(0, 0%, 0%, 1)" rx="2.394736842105263" transform="rotate(45, 581.8181818181819, 0)"></rect><rect width="4.789473684210526" height="33.333333333333336" x="579.4234449760766" y="-16.666666666666668" stroke="none" fill="hsla(0, 0%, 0%, 1)" rx="2.394736842105263" transform="rotate(45, 581.8181818181819, 0)"></rect><rect width="33.333333333333336" height="4.789473684210526" x="637.878787878788" y="-2.394736842105263" stroke="none" fill="hsla(0, 0%, 0%, 1)" rx="2.394736842105263" transform="rotate(45, 654.5454545454546, 0)"></rect><rect width="4.789473684210526" height="33.333333333333336" x="652.1507177033493" y="-16.666666666666668" stroke="none" fill="hsla(0, 0%, 0%, 1)" rx="2.394736842105263" transform="rotate(45, 654.5454545454546, 0)"></rect><rect width="33.333333333333336" height="4.789473684210526" x="710.6060606060607" y="-2.394736842105263" stroke="none" fill="hsla(0, 0%, 0%, 1)" rx="2.394736842105263" transform="rotate(45, 727.2727272727274, 0)"></rect><rect width="4.789473684210526" height="33.333333333333336" x="724.877990430622" y="-16.666666666666668" stroke="none" fill="hsla(0, 0%, 0%, 1)" rx="2.394736842105263" transform="rotate(45, 727.2727272727274, 0)"></rect><rect width="33.333333333333336" height="4.789473684210526" x="783.3333333333335" y="-2.394736842105263" stroke="none" fill="hsla(0, 0%, 0%, 1)" rx="2.394736842105263" transform="rotate(45, 800.0000000000001, 0)"></rect><rect width="4.789473684210526" height="33.333333333333336" x="797.6052631578948" y="-16.666666666666668" stroke="none" fill="hsla(0, 0%, 0%, 1)" rx="2.394736842105263" transform="rotate(45, 800.0000000000001, 0)"></rect><rect width="33.333333333333336" height="4.789473684210526" x="-16.666666666666668" y="64.27192982456141" stroke="none" fill="hsla(0, 0%, 0%, 1)" rx="2.394736842105263" transform="rotate(45, 0, 66.66666666666667)"></rect><rect width="4.789473684210526" height="33.333333333333336" x="-2.394736842105263" y="50" stroke="none" fill="hsla(0, 0%, 0%, 1)" rx="2.394736842105263" transform="rotate(45, 0, 66.66666666666667)"></rect><rect width="33.333333333333336" height="4.789473684210526" x="56.06060606060606" y="64.27192982456141" stroke="none" fill="hsla(0, 0%, 0%, 1)" rx="2.394736842105263" transform="rotate(45, 72.72727272727273, 66.66666666666667)"></rect><rect width="4.789473684210526" height="33.333333333333336" x="70.33253588516747" y="50" stroke="none" fill="hsla(0, 0%, 0%, 1)" rx="2.394736842105263" transform="rotate(45, 72.72727272727273, 66.66666666666667)"></rect><rect width="33.333333333333336" height="4.789473684210526" x="128.7878787878788" y="64.27192982456141" stroke="none" fill="hsla(0, 0%, 0%, 1)" rx="2.394736842105263" transform="rotate(45, 145.45454545454547, 66.66666666666667)"></rect><rect width="4.789473684210526" height="33.333333333333336" x="143.0598086124402" y="50" stroke="none" fill="hsla(0, 0%, 0%, 1)" rx="2.394736842105263" transform="rotate(45, 145.45454545454547, 66.66666666666667)"></rect><rect width="33.333333333333336" height="4.789473684210526" x="201.51515151515153" y="64.27192982456141" stroke="none" fill="hsla(0, 0%, 0%, 1)" rx="2.394736842105263" transform="rotate(45, 218.1818181818182, 66.66666666666667)"></rect><rect width="4.789473684210526" height="33.333333333333336" x="215.78708133971293" y="50" stroke="none" fill="hsla(0, 0%, 0%, 1)" rx="2.394736842105263" transform="rotate(45, 218.1818181818182, 66.66666666666667)"></rect><rect width="33.333333333333336" height="4.789473684210526" x="274.24242424242425" y="64.27192982456141" stroke="none" fill="hsla(0, 0%, 0%, 1)" rx="2.394736842105263" transform="rotate(45, 290.90909090909093, 66.66666666666667)"></rect><rect width="4.789473684210526" height="33.333333333333336" x="288.5143540669857" y="50" stroke="none" fill="hsla(0, 0%, 0%, 1)" rx="2.394736842105263" transform="rotate(45, 290.90909090909093, 66.66666666666667)"></rect><rect width="33.333333333333336" height="4.789473684210526" x="346.969696969697" y="64.27192982456141" stroke="none" fill="hsla(0, 0%, 0%, 1)" rx="2.394736842105263" transform="rotate(45, 363.6363636363637, 66.66666666666667)"></rect><rect width="4.789473684210526" height="33.333333333333336" x="361.2416267942584" y="50" stroke="none" fill="hsla(0, 0%, 0%, 1)" rx="2.394736842105263" transform="rotate(45, 363.6363636363637, 66.66666666666667)"></rect><rect width="33.333333333333336" height="4.789473684210526" x="419.69696969696975" y="64.27192982456141" stroke="none" fill="hsla(0, 0%, 0%, 1)" rx="2.394736842105263" transform="rotate(45, 436.36363636363643, 66.66666666666667)"></rect><rect width="4.789473684210526" height="33.333333333333336" x="433.96889952153117" y="50" stroke="none" fill="hsla(0, 0%, 0%, 1)" rx="2.394736842105263" transform="rotate(45, 436.36363636363643, 66.66666666666667)"></rect><rect width="33.333333333333336" height="4.789473684210526" x="492.4242424242425" y="64.27192982456141" stroke="none" fill="hsla(0, 0%, 0%, 1)" rx="2.394736842105263" transform="rotate(45, 509.0909090909092, 66.66666666666667)"></rect><rect width="4.789473684210526" height="33.333333333333336" x="506.6961722488039" y="50" stroke="none" fill="hsla(0, 0%, 0%, 1)" rx="2.394736842105263" transform="rotate(45, 509.0909090909092, 66.66666666666667)"></rect><rect width="33.333333333333336" height="4.789473684210526" x="565.1515151515152" y="64.27192982456141" stroke="none" fill="hsla(0, 0%, 0%, 1)" rx="2.394736842105263" transform="rotate(45, 581.8181818181819, 66.66666666666667)"></rect><rect width="4.789473684210526" height="33.333333333333336" x="579.4234449760766" y="50" stroke="none" fill="hsla(0, 0%, 0%, 1)" rx="2.394736842105263" transform="rotate(45, 581.8181818181819, 66.66666666666667)"></rect><rect width="33.333333333333336" height="4.789473684210526" x="637.878787878788" y="64.27192982456141" stroke="none" fill="hsla(0, 0%, 0%, 1)" rx="2.394736842105263" transform="rotate(45, 654.5454545454546, 66.66666666666667)"></rect><rect width="4.789473684210526" height="33.333333333333336" x="652.1507177033493" y="50" stroke="none" fill="hsla(0, 0%, 0%, 1)" rx="2.394736842105263" transform="rotate(45, 654.5454545454546, 66.66666666666667)"></rect><rect width="33.333333333333336" height="4.789473684210526" x="710.6060606060607" y="64.27192982456141" stroke="none" fill="hsla(0, 0%, 0%, 1)" rx="2.394736842105263" transform="rotate(45, 727.2727272727274, 66.66666666666667)"></rect><rect width="4.789473684210526" height="33.333333333333336" x="724.877990430622" y="50" stroke="none" fill="hsla(0, 0%, 0%, 1)" rx="2.394736842105263" transform="rotate(45, 727.2727272727274, 66.66666666666667)"></rect><rect width="33.333333333333336" height="4.789473684210526" x="783.3333333333335" y="64.27192982456141" stroke="none" fill="hsla(0, 0%, 0%, 1)" rx="2.394736842105263" transform="rotate(45, 800.0000000000001, 66.66666666666667)"></rect><rect width="4.789473684210526" height="33.333333333333336" x="797.6052631578948" y="50" stroke="none" fill="hsla(0, 0%, 0%, 1)" rx="2.394736842105263" transform="rotate(45, 800.0000000000001, 66.66666666666667)"></rect><rect width="33.333333333333336" height="4.789473684210526" x="-16.666666666666668" y="130.93859649122808" stroke="none" fill="hsla(0, 0%, 0%, 1)" rx="2.394736842105263" transform="rotate(45, 0, 133.33333333333334)"></rect><rect width="4.789473684210526" height="33.333333333333336" x="-2.394736842105263" y="116.66666666666667" stroke="none" fill="hsla(0, 0%, 0%, 1)" rx="2.394736842105263" transform="rotate(45, 0, 133.33333333333334)"></rect><rect width="33.333333333333336" height="4.789473684210526" x="56.06060606060606" y="130.93859649122808" stroke="none" fill="hsla(0, 0%, 0%, 1)" rx="2.394736842105263" transform="rotate(45, 72.72727272727273, 133.33333333333334)"></rect><rect width="4.789473684210526" height="33.333333333333336" x="70.33253588516747" y="116.66666666666667" stroke="none" fill="hsla(0, 0%, 0%, 1)" rx="2.394736842105263" transform="rotate(45, 72.72727272727273, 133.33333333333334)"></rect><rect width="33.333333333333336" height="4.789473684210526" x="128.7878787878788" y="130.93859649122808" stroke="none" fill="hsla(0, 0%, 0%, 1)" rx="2.394736842105263" transform="rotate(45, 145.45454545454547, 133.33333333333334)"></rect><rect width="4.789473684210526" height="33.333333333333336" x="143.0598086124402" y="116.66666666666667" stroke="none" fill="hsla(0, 0%, 0%, 1)" rx="2.394736842105263" transform="rotate(45, 145.45454545454547, 133.33333333333334)"></rect><rect width="33.333333333333336" height="4.789473684210526" x="201.51515151515153" y="130.93859649122808" stroke="none" fill="hsla(0, 0%, 0%, 1)" rx="2.394736842105263" transform="rotate(45, 218.1818181818182, 133.33333333333334)"></rect><rect width="4.789473684210526" height="33.333333333333336" x="215.78708133971293" y="116.66666666666667" stroke="none" fill="hsla(0, 0%, 0%, 1)" rx="2.394736842105263" transform="rotate(45, 218.1818181818182, 133.33333333333334)"></rect><rect width="33.333333333333336" height="4.789473684210526" x="274.24242424242425" y="130.93859649122808" stroke="none" fill="hsla(0, 0%, 0%, 1)" rx="2.394736842105263" transform="rotate(45, 290.90909090909093, 133.33333333333334)"></rect><rect width="4.789473684210526" height="33.333333333333336" x="288.5143540669857" y="116.66666666666667" stroke="none" fill="hsla(0, 0%, 0%, 1)" rx="2.394736842105263" transform="rotate(45, 290.90909090909093, 133.33333333333334)"></rect><rect width="33.333333333333336" height="4.789473684210526" x="346.969696969697" y="130.93859649122808" stroke="none" fill="hsla(0, 0%, 0%, 1)" rx="2.394736842105263" transform="rotate(45, 363.6363636363637, 133.33333333333334)"></rect><rect width="4.789473684210526" height="33.333333333333336" x="361.2416267942584" y="116.66666666666667" stroke="none" fill="hsla(0, 0%, 0%, 1)" rx="2.394736842105263" transform="rotate(45, 363.6363636363637, 133.33333333333334)"></rect><rect width="33.333333333333336" height="4.789473684210526" x="419.69696969696975" y="130.93859649122808" stroke="none" fill="hsla(0, 0%, 0%, 1)" rx="2.394736842105263" transform="rotate(45, 436.36363636363643, 133.33333333333334)"></rect><rect width="4.789473684210526" height="33.333333333333336" x="433.96889952153117" y="116.66666666666667" stroke="none" fill="hsla(0, 0%, 0%, 1)" rx="2.394736842105263" transform="rotate(45, 436.36363636363643, 133.33333333333334)"></rect><rect width="33.333333333333336" height="4.789473684210526" x="492.4242424242425" y="130.93859649122808" stroke="none" fill="hsla(0, 0%, 0%, 1)" rx="2.394736842105263" transform="rotate(45, 509.0909090909092, 133.33333333333334)"></rect><rect width="4.789473684210526" height="33.333333333333336" x="506.6961722488039" y="116.66666666666667" stroke="none" fill="hsla(0, 0%, 0%, 1)" rx="2.394736842105263" transform="rotate(45, 509.0909090909092, 133.33333333333334)"></rect><rect width="33.333333333333336" height="4.789473684210526" x="565.1515151515152" y="130.93859649122808" stroke="none" fill="hsla(0, 0%, 0%, 1)" rx="2.394736842105263" transform="rotate(45, 581.8181818181819, 133.33333333333334)"></rect><rect width="4.789473684210526" height="33.333333333333336" x="579.4234449760766" y="116.66666666666667" stroke="none" fill="hsla(0, 0%, 0%, 1)" rx="2.394736842105263" transform="rotate(45, 581.8181818181819, 133.33333333333334)"></rect><rect width="33.333333333333336" height="4.789473684210526" x="637.878787878788" y="130.93859649122808" stroke="none" fill="hsla(0, 0%, 0%, 1)" rx="2.394736842105263" transform="rotate(45, 654.5454545454546, 133.33333333333334)"></rect><rect width="4.789473684210526" height="33.333333333333336" x="652.1507177033493" y="116.66666666666667" stroke="none" fill="hsla(0, 0%, 0%, 1)" rx="2.394736842105263" transform="rotate(45, 654.5454545454546, 133.33333333333334)"></rect><rect width="33.333333333333336" height="4.789473684210526" x="710.6060606060607" y="130.93859649122808" stroke="none" fill="hsla(0, 0%, 0%, 1)" rx="2.394736842105263" transform="rotate(45, 727.2727272727274, 133.33333333333334)"></rect><rect width="4.789473684210526" height="33.333333333333336" x="724.877990430622" y="116.66666666666667" stroke="none" fill="hsla(0, 0%, 0%, 1)" rx="2.394736842105263" transform="rotate(45, 727.2727272727274, 133.33333333333334)"></rect><rect width="33.333333333333336" height="4.789473684210526" x="783.3333333333335" y="130.93859649122808" stroke="none" fill="hsla(0, 0%, 0%, 1)" rx="2.394736842105263" transform="rotate(45, 800.0000000000001, 133.33333333333334)"></rect><rect width="4.789473684210526" height="33.333333333333336" x="797.6052631578948" y="116.66666666666667" stroke="none" fill="hsla(0, 0%, 0%, 1)" rx="2.394736842105263" transform="rotate(45, 800.0000000000001, 133.33333333333334)"></rect><rect width="33.333333333333336" height="4.789473684210526" x="-16.666666666666668" y="197.60526315789474" stroke="none" fill="hsla(0, 0%, 0%, 1)" rx="2.394736842105263" transform="rotate(45, 0, 200)"></rect><rect width="4.789473684210526" height="33.333333333333336" x="-2.394736842105263" y="183.33333333333334" stroke="none" fill="hsla(0, 0%, 0%, 1)" rx="2.394736842105263" transform="rotate(45, 0, 200)"></rect><rect width="33.333333333333336" height="4.789473684210526" x="56.06060606060606" y="197.60526315789474" stroke="none" fill="hsla(0, 0%, 0%, 1)" rx="2.394736842105263" transform="rotate(45, 72.72727272727273, 200)"></rect><rect width="4.789473684210526" height="33.333333333333336" x="70.33253588516747" y="183.33333333333334" stroke="none" fill="hsla(0, 0%, 0%, 1)" rx="2.394736842105263" transform="rotate(45, 72.72727272727273, 200)"></rect><rect width="33.333333333333336" height="4.789473684210526" x="128.7878787878788" y="197.60526315789474" stroke="none" fill="hsla(0, 0%, 0%, 1)" rx="2.394736842105263" transform="rotate(45, 145.45454545454547, 200)"></rect><rect width="4.789473684210526" height="33.333333333333336" x="143.0598086124402" y="183.33333333333334" stroke="none" fill="hsla(0, 0%, 0%, 1)" rx="2.394736842105263" transform="rotate(45, 145.45454545454547, 200)"></rect><rect width="33.333333333333336" height="4.789473684210526" x="201.51515151515153" y="197.60526315789474" stroke="none" fill="hsla(0, 0%, 0%, 1)" rx="2.394736842105263" transform="rotate(45, 218.1818181818182, 200)"></rect><rect width="4.789473684210526" height="33.333333333333336" x="215.78708133971293" y="183.33333333333334" stroke="none" fill="hsla(0, 0%, 0%, 1)" rx="2.394736842105263" transform="rotate(45, 218.1818181818182, 200)"></rect><rect width="33.333333333333336" height="4.789473684210526" x="274.24242424242425" y="197.60526315789474" stroke="none" fill="hsla(0, 0%, 0%, 1)" rx="2.394736842105263" transform="rotate(45, 290.90909090909093, 200)"></rect><rect width="4.789473684210526" height="33.333333333333336" x="288.5143540669857" y="183.33333333333334" stroke="none" fill="hsla(0, 0%, 0%, 1)" rx="2.394736842105263" transform="rotate(45, 290.90909090909093, 200)"></rect><rect width="33.333333333333336" height="4.789473684210526" x="346.969696969697" y="197.60526315789474" stroke="none" fill="hsla(0, 0%, 0%, 1)" rx="2.394736842105263" transform="rotate(45, 363.6363636363637, 200)"></rect><rect width="4.789473684210526" height="33.333333333333336" x="361.2416267942584" y="183.33333333333334" stroke="none" fill="hsla(0, 0%, 0%, 1)" rx="2.394736842105263" transform="rotate(45, 363.6363636363637, 200)"></rect><rect width="33.333333333333336" height="4.789473684210526" x="419.69696969696975" y="197.60526315789474" stroke="none" fill="hsla(0, 0%, 0%, 1)" rx="2.394736842105263" transform="rotate(45, 436.36363636363643, 200)"></rect><rect width="4.789473684210526" height="33.333333333333336" x="433.96889952153117" y="183.33333333333334" stroke="none" fill="hsla(0, 0%, 0%, 1)" rx="2.394736842105263" transform="rotate(45, 436.36363636363643, 200)"></rect><rect width="33.333333333333336" height="4.789473684210526" x="492.4242424242425" y="197.60526315789474" stroke="none" fill="hsla(0, 0%, 0%, 1)" rx="2.394736842105263" transform="rotate(45, 509.0909090909092, 200)"></rect><rect width="4.789473684210526" height="33.333333333333336" x="506.6961722488039" y="183.33333333333334" stroke="none" fill="hsla(0, 0%, 0%, 1)" rx="2.394736842105263" transform="rotate(45, 509.0909090909092, 200)"></rect><rect width="33.333333333333336" height="4.789473684210526" x="565.1515151515152" y="197.60526315789474" stroke="none" fill="hsla(0, 0%, 0%, 1)" rx="2.394736842105263" transform="rotate(45, 581.8181818181819, 200)"></rect><rect width="4.789473684210526" height="33.333333333333336" x="579.4234449760766" y="183.33333333333334" stroke="none" fill="hsla(0, 0%, 0%, 1)" rx="2.394736842105263" transform="rotate(45, 581.8181818181819, 200)"></rect><rect width="33.333333333333336" height="4.789473684210526" x="637.878787878788" y="197.60526315789474" stroke="none" fill="hsla(0, 0%, 0%, 1)" rx="2.394736842105263" transform="rotate(45, 654.5454545454546, 200)"></rect><rect width="4.789473684210526" height="33.333333333333336" x="652.1507177033493" y="183.33333333333334" stroke="none" fill="hsla(0, 0%, 0%, 1)" rx="2.394736842105263" transform="rotate(45, 654.5454545454546, 200)"></rect><rect width="33.333333333333336" height="4.789473684210526" x="710.6060606060607" y="197.60526315789474" stroke="none" fill="hsla(0, 0%, 0%, 1)" rx="2.394736842105263" transform="rotate(45, 727.2727272727274, 200)"></rect><rect width="4.789473684210526" height="33.333333333333336" x="724.877990430622" y="183.33333333333334" stroke="none" fill="hsla(0, 0%, 0%, 1)" rx="2.394736842105263" transform="rotate(45, 727.2727272727274, 200)"></rect><rect width="33.333333333333336" height="4.789473684210526" x="783.3333333333335" y="197.60526315789474" stroke="none" fill="hsla(0, 0%, 0%, 1)" rx="2.394736842105263" transform="rotate(45, 800.0000000000001, 200)"></rect><rect width="4.789473684210526" height="33.333333333333336" x="797.6052631578948" y="183.33333333333334" stroke="none" fill="hsla(0, 0%, 0%, 1)" rx="2.394736842105263" transform="rotate(45, 800.0000000000001, 200)"></rect><rect width="33.333333333333336" height="4.789473684210526" x="-16.666666666666668" y="264.2719298245614" stroke="none" fill="hsla(0, 0%, 0%, 1)" rx="2.394736842105263" transform="rotate(45, 0, 266.6666666666667)"></rect><rect width="4.789473684210526" height="33.333333333333336" x="-2.394736842105263" y="250.00000000000003" stroke="none" fill="hsla(0, 0%, 0%, 1)" rx="2.394736842105263" transform="rotate(45, 0, 266.6666666666667)"></rect><rect width="33.333333333333336" height="4.789473684210526" x="56.06060606060606" y="264.2719298245614" stroke="none" fill="hsla(0, 0%, 0%, 1)" rx="2.394736842105263" transform="rotate(45, 72.72727272727273, 266.6666666666667)"></rect><rect width="4.789473684210526" height="33.333333333333336" x="70.33253588516747" y="250.00000000000003" stroke="none" fill="hsla(0, 0%, 0%, 1)" rx="2.394736842105263" transform="rotate(45, 72.72727272727273, 266.6666666666667)"></rect><rect width="33.333333333333336" height="4.789473684210526" x="128.7878787878788" y="264.2719298245614" stroke="none" fill="hsla(0, 0%, 0%, 1)" rx="2.394736842105263" transform="rotate(45, 145.45454545454547, 266.6666666666667)"></rect><rect width="4.789473684210526" height="33.333333333333336" x="143.0598086124402" y="250.00000000000003" stroke="none" fill="hsla(0, 0%, 0%, 1)" rx="2.394736842105263" transform="rotate(45, 145.45454545454547, 266.6666666666667)"></rect><rect width="33.333333333333336" height="4.789473684210526" x="201.51515151515153" y="264.2719298245614" stroke="none" fill="hsla(0, 0%, 0%, 1)" rx="2.394736842105263" transform="rotate(45, 218.1818181818182, 266.6666666666667)"></rect><rect width="4.789473684210526" height="33.333333333333336" x="215.78708133971293" y="250.00000000000003" stroke="none" fill="hsla(0, 0%, 0%, 1)" rx="2.394736842105263" transform="rotate(45, 218.1818181818182, 266.6666666666667)"></rect><rect width="33.333333333333336" height="4.789473684210526" x="274.24242424242425" y="264.2719298245614" stroke="none" fill="hsla(0, 0%, 0%, 1)" rx="2.394736842105263" transform="rotate(45, 290.90909090909093, 266.6666666666667)"></rect><rect width="4.789473684210526" height="33.333333333333336" x="288.5143540669857" y="250.00000000000003" stroke="none" fill="hsla(0, 0%, 0%, 1)" rx="2.394736842105263" transform="rotate(45, 290.90909090909093, 266.6666666666667)"></rect><rect width="33.333333333333336" height="4.789473684210526" x="346.969696969697" y="264.2719298245614" stroke="none" fill="hsla(0, 0%, 0%, 1)" rx="2.394736842105263" transform="rotate(45, 363.6363636363637, 266.6666666666667)"></rect><rect width="4.789473684210526" height="33.333333333333336" x="361.2416267942584" y="250.00000000000003" stroke="none" fill="hsla(0, 0%, 0%, 1)" rx="2.394736842105263" transform="rotate(45, 363.6363636363637, 266.6666666666667)"></rect><rect width="33.333333333333336" height="4.789473684210526" x="419.69696969696975" y="264.2719298245614" stroke="none" fill="hsla(0, 0%, 0%, 1)" rx="2.394736842105263" transform="rotate(45, 436.36363636363643, 266.6666666666667)"></rect><rect width="4.789473684210526" height="33.333333333333336" x="433.96889952153117" y="250.00000000000003" stroke="none" fill="hsla(0, 0%, 0%, 1)" rx="2.394736842105263" transform="rotate(45, 436.36363636363643, 266.6666666666667)"></rect><rect width="33.333333333333336" height="4.789473684210526" x="492.4242424242425" y="264.2719298245614" stroke="none" fill="hsla(0, 0%, 0%, 1)" rx="2.394736842105263" transform="rotate(45, 509.0909090909092, 266.6666666666667)"></rect><rect width="4.789473684210526" height="33.333333333333336" x="506.6961722488039" y="250.00000000000003" stroke="none" fill="hsla(0, 0%, 0%, 1)" rx="2.394736842105263" transform="rotate(45, 509.0909090909092, 266.6666666666667)"></rect><rect width="33.333333333333336" height="4.789473684210526" x="565.1515151515152" y="264.2719298245614" stroke="none" fill="hsla(0, 0%, 0%, 1)" rx="2.394736842105263" transform="rotate(45, 581.8181818181819, 266.6666666666667)"></rect><rect width="4.789473684210526" height="33.333333333333336" x="579.4234449760766" y="250.00000000000003" stroke="none" fill="hsla(0, 0%, 0%, 1)" rx="2.394736842105263" transform="rotate(45, 581.8181818181819, 266.6666666666667)"></rect><rect width="33.333333333333336" height="4.789473684210526" x="637.878787878788" y="264.2719298245614" stroke="none" fill="hsla(0, 0%, 0%, 1)" rx="2.394736842105263" transform="rotate(45, 654.5454545454546, 266.6666666666667)"></rect><rect width="4.789473684210526" height="33.333333333333336" x="652.1507177033493" y="250.00000000000003" stroke="none" fill="hsla(0, 0%, 0%, 1)" rx="2.394736842105263" transform="rotate(45, 654.5454545454546, 266.6666666666667)"></rect><rect width="33.333333333333336" height="4.789473684210526" x="710.6060606060607" y="264.2719298245614" stroke="none" fill="hsla(0, 0%, 0%, 1)" rx="2.394736842105263" transform="rotate(45, 727.2727272727274, 266.6666666666667)"></rect><rect width="4.789473684210526" height="33.333333333333336" x="724.877990430622" y="250.00000000000003" stroke="none" fill="hsla(0, 0%, 0%, 1)" rx="2.394736842105263" transform="rotate(45, 727.2727272727274, 266.6666666666667)"></rect><rect width="33.333333333333336" height="4.789473684210526" x="783.3333333333335" y="264.2719298245614" stroke="none" fill="hsla(0, 0%, 0%, 1)" rx="2.394736842105263" transform="rotate(45, 800.0000000000001, 266.6666666666667)"></rect><rect width="4.789473684210526" height="33.333333333333336" x="797.6052631578948" y="250.00000000000003" stroke="none" fill="hsla(0, 0%, 0%, 1)" rx="2.394736842105263" transform="rotate(45, 800.0000000000001, 266.6666666666667)"></rect><rect width="33.333333333333336" height="4.789473684210526" x="-16.666666666666668" y="330.9385964912281" stroke="none" fill="hsla(0, 0%, 0%, 1)" rx="2.394736842105263" transform="rotate(45, 0, 333.33333333333337)"></rect><rect width="4.789473684210526" height="33.333333333333336" x="-2.394736842105263" y="316.6666666666667" stroke="none" fill="hsla(0, 0%, 0%, 1)" rx="2.394736842105263" transform="rotate(45, 0, 333.33333333333337)"></rect><rect width="33.333333333333336" height="4.789473684210526" x="56.06060606060606" y="330.9385964912281" stroke="none" fill="hsla(0, 0%, 0%, 1)" rx="2.394736842105263" transform="rotate(45, 72.72727272727273, 333.33333333333337)"></rect><rect width="4.789473684210526" height="33.333333333333336" x="70.33253588516747" y="316.6666666666667" stroke="none" fill="hsla(0, 0%, 0%, 1)" rx="2.394736842105263" transform="rotate(45, 72.72727272727273, 333.33333333333337)"></rect><rect width="33.333333333333336" height="4.789473684210526" x="128.7878787878788" y="330.9385964912281" stroke="none" fill="hsla(0, 0%, 0%, 1)" rx="2.394736842105263" transform="rotate(45, 145.45454545454547, 333.33333333333337)"></rect><rect width="4.789473684210526" height="33.333333333333336" x="143.0598086124402" y="316.6666666666667" stroke="none" fill="hsla(0, 0%, 0%, 1)" rx="2.394736842105263" transform="rotate(45, 145.45454545454547, 333.33333333333337)"></rect><rect width="33.333333333333336" height="4.789473684210526" x="201.51515151515153" y="330.9385964912281" stroke="none" fill="hsla(0, 0%, 0%, 1)" rx="2.394736842105263" transform="rotate(45, 218.1818181818182, 333.33333333333337)"></rect><rect width="4.789473684210526" height="33.333333333333336" x="215.78708133971293" y="316.6666666666667" stroke="none" fill="hsla(0, 0%, 0%, 1)" rx="2.394736842105263" transform="rotate(45, 218.1818181818182, 333.33333333333337)"></rect><rect width="33.333333333333336" height="4.789473684210526" x="274.24242424242425" y="330.9385964912281" stroke="none" fill="hsla(0, 0%, 0%, 1)" rx="2.394736842105263" transform="rotate(45, 290.90909090909093, 333.33333333333337)"></rect><rect width="4.789473684210526" height="33.333333333333336" x="288.5143540669857" y="316.6666666666667" stroke="none" fill="hsla(0, 0%, 0%, 1)" rx="2.394736842105263" transform="rotate(45, 290.90909090909093, 333.33333333333337)"></rect><rect width="33.333333333333336" height="4.789473684210526" x="346.969696969697" y="330.9385964912281" stroke="none" fill="hsla(0, 0%, 0%, 1)" rx="2.394736842105263" transform="rotate(45, 363.6363636363637, 333.33333333333337)"></rect><rect width="4.789473684210526" height="33.333333333333336" x="361.2416267942584" y="316.6666666666667" stroke="none" fill="hsla(0, 0%, 0%, 1)" rx="2.394736842105263" transform="rotate(45, 363.6363636363637, 333.33333333333337)"></rect><rect width="33.333333333333336" height="4.789473684210526" x="419.69696969696975" y="330.9385964912281" stroke="none" fill="hsla(0, 0%, 0%, 1)" rx="2.394736842105263" transform="rotate(45, 436.36363636363643, 333.33333333333337)"></rect><rect width="4.789473684210526" height="33.333333333333336" x="433.96889952153117" y="316.6666666666667" stroke="none" fill="hsla(0, 0%, 0%, 1)" rx="2.394736842105263" transform="rotate(45, 436.36363636363643, 333.33333333333337)"></rect><rect width="33.333333333333336" height="4.789473684210526" x="492.4242424242425" y="330.9385964912281" stroke="none" fill="hsla(0, 0%, 0%, 1)" rx="2.394736842105263" transform="rotate(45, 509.0909090909092, 333.33333333333337)"></rect><rect width="4.789473684210526" height="33.333333333333336" x="506.6961722488039" y="316.6666666666667" stroke="none" fill="hsla(0, 0%, 0%, 1)" rx="2.394736842105263" transform="rotate(45, 509.0909090909092, 333.33333333333337)"></rect><rect width="33.333333333333336" height="4.789473684210526" x="565.1515151515152" y="330.9385964912281" stroke="none" fill="hsla(0, 0%, 0%, 1)" rx="2.394736842105263" transform="rotate(45, 581.8181818181819, 333.33333333333337)"></rect><rect width="4.789473684210526" height="33.333333333333336" x="579.4234449760766" y="316.6666666666667" stroke="none" fill="hsla(0, 0%, 0%, 1)" rx="2.394736842105263" transform="rotate(45, 581.8181818181819, 333.33333333333337)"></rect><rect width="33.333333333333336" height="4.789473684210526" x="637.878787878788" y="330.9385964912281" stroke="none" fill="hsla(0, 0%, 0%, 1)" rx="2.394736842105263" transform="rotate(45, 654.5454545454546, 333.33333333333337)"></rect><rect width="4.789473684210526" height="33.333333333333336" x="652.1507177033493" y="316.6666666666667" stroke="none" fill="hsla(0, 0%, 0%, 1)" rx="2.394736842105263" transform="rotate(45, 654.5454545454546, 333.33333333333337)"></rect><rect width="33.333333333333336" height="4.789473684210526" x="710.6060606060607" y="330.9385964912281" stroke="none" fill="hsla(0, 0%, 0%, 1)" rx="2.394736842105263" transform="rotate(45, 727.2727272727274, 333.33333333333337)"></rect><rect width="4.789473684210526" height="33.333333333333336" x="724.877990430622" y="316.6666666666667" stroke="none" fill="hsla(0, 0%, 0%, 1)" rx="2.394736842105263" transform="rotate(45, 727.2727272727274, 333.33333333333337)"></rect><rect width="33.333333333333336" height="4.789473684210526" x="783.3333333333335" y="330.9385964912281" stroke="none" fill="hsla(0, 0%, 0%, 1)" rx="2.394736842105263" transform="rotate(45, 800.0000000000001, 333.33333333333337)"></rect><rect width="4.789473684210526" height="33.333333333333336" x="797.6052631578948" y="316.6666666666667" stroke="none" fill="hsla(0, 0%, 0%, 1)" rx="2.394736842105263" transform="rotate(45, 800.0000000000001, 333.33333333333337)"></rect><rect width="33.333333333333336" height="4.789473684210526" x="-16.666666666666668" y="397.6052631578948" stroke="none" fill="hsla(0, 0%, 0%, 1)" rx="2.394736842105263" transform="rotate(45, 0, 400.00000000000006)"></rect><rect width="4.789473684210526" height="33.333333333333336" x="-2.394736842105263" y="383.33333333333337" stroke="none" fill="hsla(0, 0%, 0%, 1)" rx="2.394736842105263" transform="rotate(45, 0, 400.00000000000006)"></rect><rect width="33.333333333333336" height="4.789473684210526" x="56.06060606060606" y="397.6052631578948" stroke="none" fill="hsla(0, 0%, 0%, 1)" rx="2.394736842105263" transform="rotate(45, 72.72727272727273, 400.00000000000006)"></rect><rect width="4.789473684210526" height="33.333333333333336" x="70.33253588516747" y="383.33333333333337" stroke="none" fill="hsla(0, 0%, 0%, 1)" rx="2.394736842105263" transform="rotate(45, 72.72727272727273, 400.00000000000006)"></rect><rect width="33.333333333333336" height="4.789473684210526" x="128.7878787878788" y="397.6052631578948" stroke="none" fill="hsla(0, 0%, 0%, 1)" rx="2.394736842105263" transform="rotate(45, 145.45454545454547, 400.00000000000006)"></rect><rect width="4.789473684210526" height="33.333333333333336" x="143.0598086124402" y="383.33333333333337" stroke="none" fill="hsla(0, 0%, 0%, 1)" rx="2.394736842105263" transform="rotate(45, 145.45454545454547, 400.00000000000006)"></rect><rect width="33.333333333333336" height="4.789473684210526" x="201.51515151515153" y="397.6052631578948" stroke="none" fill="hsla(0, 0%, 0%, 1)" rx="2.394736842105263" transform="rotate(45, 218.1818181818182, 400.00000000000006)"></rect><rect width="4.789473684210526" height="33.333333333333336" x="215.78708133971293" y="383.33333333333337" stroke="none" fill="hsla(0, 0%, 0%, 1)" rx="2.394736842105263" transform="rotate(45, 218.1818181818182, 400.00000000000006)"></rect><rect width="33.333333333333336" height="4.789473684210526" x="274.24242424242425" y="397.6052631578948" stroke="none" fill="hsla(0, 0%, 0%, 1)" rx="2.394736842105263" transform="rotate(45, 290.90909090909093, 400.00000000000006)"></rect><rect width="4.789473684210526" height="33.333333333333336" x="288.5143540669857" y="383.33333333333337" stroke="none" fill="hsla(0, 0%, 0%, 1)" rx="2.394736842105263" transform="rotate(45, 290.90909090909093, 400.00000000000006)"></rect><rect width="33.333333333333336" height="4.789473684210526" x="346.969696969697" y="397.6052631578948" stroke="none" fill="hsla(0, 0%, 0%, 1)" rx="2.394736842105263" transform="rotate(45, 363.6363636363637, 400.00000000000006)"></rect><rect width="4.789473684210526" height="33.333333333333336" x="361.2416267942584" y="383.33333333333337" stroke="none" fill="hsla(0, 0%, 0%, 1)" rx="2.394736842105263" transform="rotate(45, 363.6363636363637, 400.00000000000006)"></rect><rect width="33.333333333333336" height="4.789473684210526" x="419.69696969696975" y="397.6052631578948" stroke="none" fill="hsla(0, 0%, 0%, 1)" rx="2.394736842105263" transform="rotate(45, 436.36363636363643, 400.00000000000006)"></rect><rect width="4.789473684210526" height="33.333333333333336" x="433.96889952153117" y="383.33333333333337" stroke="none" fill="hsla(0, 0%, 0%, 1)" rx="2.394736842105263" transform="rotate(45, 436.36363636363643, 400.00000000000006)"></rect><rect width="33.333333333333336" height="4.789473684210526" x="492.4242424242425" y="397.6052631578948" stroke="none" fill="hsla(0, 0%, 0%, 1)" rx="2.394736842105263" transform="rotate(45, 509.0909090909092, 400.00000000000006)"></rect><rect width="4.789473684210526" height="33.333333333333336" x="506.6961722488039" y="383.33333333333337" stroke="none" fill="hsla(0, 0%, 0%, 1)" rx="2.394736842105263" transform="rotate(45, 509.0909090909092, 400.00000000000006)"></rect><rect width="33.333333333333336" height="4.789473684210526" x="565.1515151515152" y="397.6052631578948" stroke="none" fill="hsla(0, 0%, 0%, 1)" rx="2.394736842105263" transform="rotate(45, 581.8181818181819, 400.00000000000006)"></rect><rect width="4.789473684210526" height="33.333333333333336" x="579.4234449760766" y="383.33333333333337" stroke="none" fill="hsla(0, 0%, 0%, 1)" rx="2.394736842105263" transform="rotate(45, 581.8181818181819, 400.00000000000006)"></rect><rect width="33.333333333333336" height="4.789473684210526" x="637.878787878788" y="397.6052631578948" stroke="none" fill="hsla(0, 0%, 0%, 1)" rx="2.394736842105263" transform="rotate(45, 654.5454545454546, 400.00000000000006)"></rect><rect width="4.789473684210526" height="33.333333333333336" x="652.1507177033493" y="383.33333333333337" stroke="none" fill="hsla(0, 0%, 0%, 1)" rx="2.394736842105263" transform="rotate(45, 654.5454545454546, 400.00000000000006)"></rect><rect width="33.333333333333336" height="4.789473684210526" x="710.6060606060607" y="397.6052631578948" stroke="none" fill="hsla(0, 0%, 0%, 1)" rx="2.394736842105263" transform="rotate(45, 727.2727272727274, 400.00000000000006)"></rect><rect width="4.789473684210526" height="33.333333333333336" x="724.877990430622" y="383.33333333333337" stroke="none" fill="hsla(0, 0%, 0%, 1)" rx="2.394736842105263" transform="rotate(45, 727.2727272727274, 400.00000000000006)"></rect><rect width="33.333333333333336" height="4.789473684210526" x="783.3333333333335" y="397.6052631578948" stroke="none" fill="hsla(0, 0%, 0%, 1)" rx="2.394736842105263" transform="rotate(45, 800.0000000000001, 400.00000000000006)"></rect><rect width="4.789473684210526" height="33.333333333333336" x="797.6052631578948" y="383.33333333333337" stroke="none" fill="hsla(0, 0%, 0%, 1)" rx="2.394736842105263" transform="rotate(45, 800.0000000000001, 400.00000000000006)"></rect><rect width="33.333333333333336" height="4.789473684210526" x="-16.666666666666668" y="464.2719298245615" stroke="none" fill="hsla(0, 0%, 0%, 1)" rx="2.394736842105263" transform="rotate(45, 0, 466.66666666666674)"></rect><rect width="4.789473684210526" height="33.333333333333336" x="-2.394736842105263" y="450.00000000000006" stroke="none" fill="hsla(0, 0%, 0%, 1)" rx="2.394736842105263" transform="rotate(45, 0, 466.66666666666674)"></rect><rect width="33.333333333333336" height="4.789473684210526" x="56.06060606060606" y="464.2719298245615" stroke="none" fill="hsla(0, 0%, 0%, 1)" rx="2.394736842105263" transform="rotate(45, 72.72727272727273, 466.66666666666674)"></rect><rect width="4.789473684210526" height="33.333333333333336" x="70.33253588516747" y="450.00000000000006" stroke="none" fill="hsla(0, 0%, 0%, 1)" rx="2.394736842105263" transform="rotate(45, 72.72727272727273, 466.66666666666674)"></rect><rect width="33.333333333333336" height="4.789473684210526" x="128.7878787878788" y="464.2719298245615" stroke="none" fill="hsla(0, 0%, 0%, 1)" rx="2.394736842105263" transform="rotate(45, 145.45454545454547, 466.66666666666674)"></rect><rect width="4.789473684210526" height="33.333333333333336" x="143.0598086124402" y="450.00000000000006" stroke="none" fill="hsla(0, 0%, 0%, 1)" rx="2.394736842105263" transform="rotate(45, 145.45454545454547, 466.66666666666674)"></rect><rect width="33.333333333333336" height="4.789473684210526" x="201.51515151515153" y="464.2719298245615" stroke="none" fill="hsla(0, 0%, 0%, 1)" rx="2.394736842105263" transform="rotate(45, 218.1818181818182, 466.66666666666674)"></rect><rect width="4.789473684210526" height="33.333333333333336" x="215.78708133971293" y="450.00000000000006" stroke="none" fill="hsla(0, 0%, 0%, 1)" rx="2.394736842105263" transform="rotate(45, 218.1818181818182, 466.66666666666674)"></rect><rect width="33.333333333333336" height="4.789473684210526" x="274.24242424242425" y="464.2719298245615" stroke="none" fill="hsla(0, 0%, 0%, 1)" rx="2.394736842105263" transform="rotate(45, 290.90909090909093, 466.66666666666674)"></rect><rect width="4.789473684210526" height="33.333333333333336" x="288.5143540669857" y="450.00000000000006" stroke="none" fill="hsla(0, 0%, 0%, 1)" rx="2.394736842105263" transform="rotate(45, 290.90909090909093, 466.66666666666674)"></rect><rect width="33.333333333333336" height="4.789473684210526" x="346.969696969697" y="464.2719298245615" stroke="none" fill="hsla(0, 0%, 0%, 1)" rx="2.394736842105263" transform="rotate(45, 363.6363636363637, 466.66666666666674)"></rect><rect width="4.789473684210526" height="33.333333333333336" x="361.2416267942584" y="450.00000000000006" stroke="none" fill="hsla(0, 0%, 0%, 1)" rx="2.394736842105263" transform="rotate(45, 363.6363636363637, 466.66666666666674)"></rect><rect width="33.333333333333336" height="4.789473684210526" x="419.69696969696975" y="464.2719298245615" stroke="none" fill="hsla(0, 0%, 0%, 1)" rx="2.394736842105263" transform="rotate(45, 436.36363636363643, 466.66666666666674)"></rect><rect width="4.789473684210526" height="33.333333333333336" x="433.96889952153117" y="450.00000000000006" stroke="none" fill="hsla(0, 0%, 0%, 1)" rx="2.394736842105263" transform="rotate(45, 436.36363636363643, 466.66666666666674)"></rect><rect width="33.333333333333336" height="4.789473684210526" x="492.4242424242425" y="464.2719298245615" stroke="none" fill="hsla(0, 0%, 0%, 1)" rx="2.394736842105263" transform="rotate(45, 509.0909090909092, 466.66666666666674)"></rect><rect width="4.789473684210526" height="33.333333333333336" x="506.6961722488039" y="450.00000000000006" stroke="none" fill="hsla(0, 0%, 0%, 1)" rx="2.394736842105263" transform="rotate(45, 509.0909090909092, 466.66666666666674)"></rect><rect width="33.333333333333336" height="4.789473684210526" x="565.1515151515152" y="464.2719298245615" stroke="none" fill="hsla(0, 0%, 0%, 1)" rx="2.394736842105263" transform="rotate(45, 581.8181818181819, 466.66666666666674)"></rect><rect width="4.789473684210526" height="33.333333333333336" x="579.4234449760766" y="450.00000000000006" stroke="none" fill="hsla(0, 0%, 0%, 1)" rx="2.394736842105263" transform="rotate(45, 581.8181818181819, 466.66666666666674)"></rect><rect width="33.333333333333336" height="4.789473684210526" x="637.878787878788" y="464.2719298245615" stroke="none" fill="hsla(0, 0%, 0%, 1)" rx="2.394736842105263" transform="rotate(45, 654.5454545454546, 466.66666666666674)"></rect><rect width="4.789473684210526" height="33.333333333333336" x="652.1507177033493" y="450.00000000000006" stroke="none" fill="hsla(0, 0%, 0%, 1)" rx="2.394736842105263" transform="rotate(45, 654.5454545454546, 466.66666666666674)"></rect><rect width="33.333333333333336" height="4.789473684210526" x="710.6060606060607" y="464.2719298245615" stroke="none" fill="hsla(0, 0%, 0%, 1)" rx="2.394736842105263" transform="rotate(45, 727.2727272727274, 466.66666666666674)"></rect><rect width="4.789473684210526" height="33.333333333333336" x="724.877990430622" y="450.00000000000006" stroke="none" fill="hsla(0, 0%, 0%, 1)" rx="2.394736842105263" transform="rotate(45, 727.2727272727274, 466.66666666666674)"></rect><rect width="33.333333333333336" height="4.789473684210526" x="783.3333333333335" y="464.2719298245615" stroke="none" fill="hsla(0, 0%, 0%, 1)" rx="2.394736842105263" transform="rotate(45, 800.0000000000001, 466.66666666666674)"></rect><rect width="4.789473684210526" height="33.333333333333336" x="797.6052631578948" y="450.00000000000006" stroke="none" fill="hsla(0, 0%, 0%, 1)" rx="2.394736842105263" transform="rotate(45, 800.0000000000001, 466.66666666666674)"></rect><rect width="33.333333333333336" height="4.789473684210526" x="-16.666666666666668" y="530.938596491228" stroke="none" fill="hsla(0, 0%, 0%, 1)" rx="2.394736842105263" transform="rotate(45, 0, 533.3333333333334)"></rect><rect width="4.789473684210526" height="33.333333333333336" x="-2.394736842105263" y="516.6666666666667" stroke="none" fill="hsla(0, 0%, 0%, 1)" rx="2.394736842105263" transform="rotate(45, 0, 533.3333333333334)"></rect><rect width="33.333333333333336" height="4.789473684210526" x="56.06060606060606" y="530.938596491228" stroke="none" fill="hsla(0, 0%, 0%, 1)" rx="2.394736842105263" transform="rotate(45, 72.72727272727273, 533.3333333333334)"></rect><rect width="4.789473684210526" height="33.333333333333336" x="70.33253588516747" y="516.6666666666667" stroke="none" fill="hsla(0, 0%, 0%, 1)" rx="2.394736842105263" transform="rotate(45, 72.72727272727273, 533.3333333333334)"></rect><rect width="33.333333333333336" height="4.789473684210526" x="128.7878787878788" y="530.938596491228" stroke="none" fill="hsla(0, 0%, 0%, 1)" rx="2.394736842105263" transform="rotate(45, 145.45454545454547, 533.3333333333334)"></rect><rect width="4.789473684210526" height="33.333333333333336" x="143.0598086124402" y="516.6666666666667" stroke="none" fill="hsla(0, 0%, 0%, 1)" rx="2.394736842105263" transform="rotate(45, 145.45454545454547, 533.3333333333334)"></rect><rect width="33.333333333333336" height="4.789473684210526" x="201.51515151515153" y="530.938596491228" stroke="none" fill="hsla(0, 0%, 0%, 1)" rx="2.394736842105263" transform="rotate(45, 218.1818181818182, 533.3333333333334)"></rect><rect width="4.789473684210526" height="33.333333333333336" x="215.78708133971293" y="516.6666666666667" stroke="none" fill="hsla(0, 0%, 0%, 1)" rx="2.394736842105263" transform="rotate(45, 218.1818181818182, 533.3333333333334)"></rect><rect width="33.333333333333336" height="4.789473684210526" x="274.24242424242425" y="530.938596491228" stroke="none" fill="hsla(0, 0%, 0%, 1)" rx="2.394736842105263" transform="rotate(45, 290.90909090909093, 533.3333333333334)"></rect><rect width="4.789473684210526" height="33.333333333333336" x="288.5143540669857" y="516.6666666666667" stroke="none" fill="hsla(0, 0%, 0%, 1)" rx="2.394736842105263" transform="rotate(45, 290.90909090909093, 533.3333333333334)"></rect><rect width="33.333333333333336" height="4.789473684210526" x="346.969696969697" y="530.938596491228" stroke="none" fill="hsla(0, 0%, 0%, 1)" rx="2.394736842105263" transform="rotate(45, 363.6363636363637, 533.3333333333334)"></rect><rect width="4.789473684210526" height="33.333333333333336" x="361.2416267942584" y="516.6666666666667" stroke="none" fill="hsla(0, 0%, 0%, 1)" rx="2.394736842105263" transform="rotate(45, 363.6363636363637, 533.3333333333334)"></rect><rect width="33.333333333333336" height="4.789473684210526" x="419.69696969696975" y="530.938596491228" stroke="none" fill="hsla(0, 0%, 0%, 1)" rx="2.394736842105263" transform="rotate(45, 436.36363636363643, 533.3333333333334)"></rect><rect width="4.789473684210526" height="33.333333333333336" x="433.96889952153117" y="516.6666666666667" stroke="none" fill="hsla(0, 0%, 0%, 1)" rx="2.394736842105263" transform="rotate(45, 436.36363636363643, 533.3333333333334)"></rect><rect width="33.333333333333336" height="4.789473684210526" x="492.4242424242425" y="530.938596491228" stroke="none" fill="hsla(0, 0%, 0%, 1)" rx="2.394736842105263" transform="rotate(45, 509.0909090909092, 533.3333333333334)"></rect><rect width="4.789473684210526" height="33.333333333333336" x="506.6961722488039" y="516.6666666666667" stroke="none" fill="hsla(0, 0%, 0%, 1)" rx="2.394736842105263" transform="rotate(45, 509.0909090909092, 533.3333333333334)"></rect><rect width="33.333333333333336" height="4.789473684210526" x="565.1515151515152" y="530.938596491228" stroke="none" fill="hsla(0, 0%, 0%, 1)" rx="2.394736842105263" transform="rotate(45, 581.8181818181819, 533.3333333333334)"></rect><rect width="4.789473684210526" height="33.333333333333336" x="579.4234449760766" y="516.6666666666667" stroke="none" fill="hsla(0, 0%, 0%, 1)" rx="2.394736842105263" transform="rotate(45, 581.8181818181819, 533.3333333333334)"></rect><rect width="33.333333333333336" height="4.789473684210526" x="637.878787878788" y="530.938596491228" stroke="none" fill="hsla(0, 0%, 0%, 1)" rx="2.394736842105263" transform="rotate(45, 654.5454545454546, 533.3333333333334)"></rect><rect width="4.789473684210526" height="33.333333333333336" x="652.1507177033493" y="516.6666666666667" stroke="none" fill="hsla(0, 0%, 0%, 1)" rx="2.394736842105263" transform="rotate(45, 654.5454545454546, 533.3333333333334)"></rect><rect width="33.333333333333336" height="4.789473684210526" x="710.6060606060607" y="530.938596491228" stroke="none" fill="hsla(0, 0%, 0%, 1)" rx="2.394736842105263" transform="rotate(45, 727.2727272727274, 533.3333333333334)"></rect><rect width="4.789473684210526" height="33.333333333333336" x="724.877990430622" y="516.6666666666667" stroke="none" fill="hsla(0, 0%, 0%, 1)" rx="2.394736842105263" transform="rotate(45, 727.2727272727274, 533.3333333333334)"></rect><rect width="33.333333333333336" height="4.789473684210526" x="783.3333333333335" y="530.938596491228" stroke="none" fill="hsla(0, 0%, 0%, 1)" rx="2.394736842105263" transform="rotate(45, 800.0000000000001, 533.3333333333334)"></rect><rect width="4.789473684210526" height="33.333333333333336" x="797.6052631578948" y="516.6666666666667" stroke="none" fill="hsla(0, 0%, 0%, 1)" rx="2.394736842105263" transform="rotate(45, 800.0000000000001, 533.3333333333334)"></rect><rect width="33.333333333333336" height="4.789473684210526" x="-16.666666666666668" y="597.6052631578947" stroke="none" fill="hsla(0, 0%, 0%, 1)" rx="2.394736842105263" transform="rotate(45, 0, 600)"></rect><rect width="4.789473684210526" height="33.333333333333336" x="-2.394736842105263" y="583.3333333333334" stroke="none" fill="hsla(0, 0%, 0%, 1)" rx="2.394736842105263" transform="rotate(45, 0, 600)"></rect><rect width="33.333333333333336" height="4.789473684210526" x="56.06060606060606" y="597.6052631578947" stroke="none" fill="hsla(0, 0%, 0%, 1)" rx="2.394736842105263" transform="rotate(45, 72.72727272727273, 600)"></rect><rect width="4.789473684210526" height="33.333333333333336" x="70.33253588516747" y="583.3333333333334" stroke="none" fill="hsla(0, 0%, 0%, 1)" rx="2.394736842105263" transform="rotate(45, 72.72727272727273, 600)"></rect><rect width="33.333333333333336" height="4.789473684210526" x="128.7878787878788" y="597.6052631578947" stroke="none" fill="hsla(0, 0%, 0%, 1)" rx="2.394736842105263" transform="rotate(45, 145.45454545454547, 600)"></rect><rect width="4.789473684210526" height="33.333333333333336" x="143.0598086124402" y="583.3333333333334" stroke="none" fill="hsla(0, 0%, 0%, 1)" rx="2.394736842105263" transform="rotate(45, 145.45454545454547, 600)"></rect><rect width="33.333333333333336" height="4.789473684210526" x="201.51515151515153" y="597.6052631578947" stroke="none" fill="hsla(0, 0%, 0%, 1)" rx="2.394736842105263" transform="rotate(45, 218.1818181818182, 600)"></rect><rect width="4.789473684210526" height="33.333333333333336" x="215.78708133971293" y="583.3333333333334" stroke="none" fill="hsla(0, 0%, 0%, 1)" rx="2.394736842105263" transform="rotate(45, 218.1818181818182, 600)"></rect><rect width="33.333333333333336" height="4.789473684210526" x="274.24242424242425" y="597.6052631578947" stroke="none" fill="hsla(0, 0%, 0%, 1)" rx="2.394736842105263" transform="rotate(45, 290.90909090909093, 600)"></rect><rect width="4.789473684210526" height="33.333333333333336" x="288.5143540669857" y="583.3333333333334" stroke="none" fill="hsla(0, 0%, 0%, 1)" rx="2.394736842105263" transform="rotate(45, 290.90909090909093, 600)"></rect><rect width="33.333333333333336" height="4.789473684210526" x="346.969696969697" y="597.6052631578947" stroke="none" fill="hsla(0, 0%, 0%, 1)" rx="2.394736842105263" transform="rotate(45, 363.6363636363637, 600)"></rect><rect width="4.789473684210526" height="33.333333333333336" x="361.2416267942584" y="583.3333333333334" stroke="none" fill="hsla(0, 0%, 0%, 1)" rx="2.394736842105263" transform="rotate(45, 363.6363636363637, 600)"></rect><rect width="33.333333333333336" height="4.789473684210526" x="419.69696969696975" y="597.6052631578947" stroke="none" fill="hsla(0, 0%, 0%, 1)" rx="2.394736842105263" transform="rotate(45, 436.36363636363643, 600)"></rect><rect width="4.789473684210526" height="33.333333333333336" x="433.96889952153117" y="583.3333333333334" stroke="none" fill="hsla(0, 0%, 0%, 1)" rx="2.394736842105263" transform="rotate(45, 436.36363636363643, 600)"></rect><rect width="33.333333333333336" height="4.789473684210526" x="492.4242424242425" y="597.6052631578947" stroke="none" fill="hsla(0, 0%, 0%, 1)" rx="2.394736842105263" transform="rotate(45, 509.0909090909092, 600)"></rect><rect width="4.789473684210526" height="33.333333333333336" x="506.6961722488039" y="583.3333333333334" stroke="none" fill="hsla(0, 0%, 0%, 1)" rx="2.394736842105263" transform="rotate(45, 509.0909090909092, 600)"></rect><rect width="33.333333333333336" height="4.789473684210526" x="565.1515151515152" y="597.6052631578947" stroke="none" fill="hsla(0, 0%, 0%, 1)" rx="2.394736842105263" transform="rotate(45, 581.8181818181819, 600)"></rect><rect width="4.789473684210526" height="33.333333333333336" x="579.4234449760766" y="583.3333333333334" stroke="none" fill="hsla(0, 0%, 0%, 1)" rx="2.394736842105263" transform="rotate(45, 581.8181818181819, 600)"></rect><rect width="33.333333333333336" height="4.789473684210526" x="637.878787878788" y="597.6052631578947" stroke="none" fill="hsla(0, 0%, 0%, 1)" rx="2.394736842105263" transform="rotate(45, 654.5454545454546, 600)"></rect><rect width="4.789473684210526" height="33.333333333333336" x="652.1507177033493" y="583.3333333333334" stroke="none" fill="hsla(0, 0%, 0%, 1)" rx="2.394736842105263" transform="rotate(45, 654.5454545454546, 600)"></rect><rect width="33.333333333333336" height="4.789473684210526" x="710.6060606060607" y="597.6052631578947" stroke="none" fill="hsla(0, 0%, 0%, 1)" rx="2.394736842105263" transform="rotate(45, 727.2727272727274, 600)"></rect><rect width="4.789473684210526" height="33.333333333333336" x="724.877990430622" y="583.3333333333334" stroke="none" fill="hsla(0, 0%, 0%, 1)" rx="2.394736842105263" transform="rotate(45, 727.2727272727274, 600)"></rect><rect width="33.333333333333336" height="4.789473684210526" x="783.3333333333335" y="597.6052631578947" stroke="none" fill="hsla(0, 0%, 0%, 1)" rx="2.394736842105263" transform="rotate(45, 800.0000000000001, 600)"></rect><rect width="4.789473684210526" height="33.333333333333336" x="797.6052631578948" y="583.3333333333334" stroke="none" fill="hsla(0, 0%, 0%, 1)" rx="2.394736842105263" transform="rotate(45, 800.0000000000001, 600)"></rect><rect width="33.333333333333336" height="4.789473684210526" x="-16.666666666666668" y="664.2719298245613" stroke="none" fill="hsla(0, 0%, 0%, 1)" rx="2.394736842105263" transform="rotate(45, 0, 666.6666666666666)"></rect><rect width="4.789473684210526" height="33.333333333333336" x="-2.394736842105263" y="650" stroke="none" fill="hsla(0, 0%, 0%, 1)" rx="2.394736842105263" transform="rotate(45, 0, 666.6666666666666)"></rect><rect width="33.333333333333336" height="4.789473684210526" x="56.06060606060606" y="664.2719298245613" stroke="none" fill="hsla(0, 0%, 0%, 1)" rx="2.394736842105263" transform="rotate(45, 72.72727272727273, 666.6666666666666)"></rect><rect width="4.789473684210526" height="33.333333333333336" x="70.33253588516747" y="650" stroke="none" fill="hsla(0, 0%, 0%, 1)" rx="2.394736842105263" transform="rotate(45, 72.72727272727273, 666.6666666666666)"></rect><rect width="33.333333333333336" height="4.789473684210526" x="128.7878787878788" y="664.2719298245613" stroke="none" fill="hsla(0, 0%, 0%, 1)" rx="2.394736842105263" transform="rotate(45, 145.45454545454547, 666.6666666666666)"></rect><rect width="4.789473684210526" height="33.333333333333336" x="143.0598086124402" y="650" stroke="none" fill="hsla(0, 0%, 0%, 1)" rx="2.394736842105263" transform="rotate(45, 145.45454545454547, 666.6666666666666)"></rect><rect width="33.333333333333336" height="4.789473684210526" x="201.51515151515153" y="664.2719298245613" stroke="none" fill="hsla(0, 0%, 0%, 1)" rx="2.394736842105263" transform="rotate(45, 218.1818181818182, 666.6666666666666)"></rect><rect width="4.789473684210526" height="33.333333333333336" x="215.78708133971293" y="650" stroke="none" fill="hsla(0, 0%, 0%, 1)" rx="2.394736842105263" transform="rotate(45, 218.1818181818182, 666.6666666666666)"></rect><rect width="33.333333333333336" height="4.789473684210526" x="274.24242424242425" y="664.2719298245613" stroke="none" fill="hsla(0, 0%, 0%, 1)" rx="2.394736842105263" transform="rotate(45, 290.90909090909093, 666.6666666666666)"></rect><rect width="4.789473684210526" height="33.333333333333336" x="288.5143540669857" y="650" stroke="none" fill="hsla(0, 0%, 0%, 1)" rx="2.394736842105263" transform="rotate(45, 290.90909090909093, 666.6666666666666)"></rect><rect width="33.333333333333336" height="4.789473684210526" x="346.969696969697" y="664.2719298245613" stroke="none" fill="hsla(0, 0%, 0%, 1)" rx="2.394736842105263" transform="rotate(45, 363.6363636363637, 666.6666666666666)"></rect><rect width="4.789473684210526" height="33.333333333333336" x="361.2416267942584" y="650" stroke="none" fill="hsla(0, 0%, 0%, 1)" rx="2.394736842105263" transform="rotate(45, 363.6363636363637, 666.6666666666666)"></rect><rect width="33.333333333333336" height="4.789473684210526" x="419.69696969696975" y="664.2719298245613" stroke="none" fill="hsla(0, 0%, 0%, 1)" rx="2.394736842105263" transform="rotate(45, 436.36363636363643, 666.6666666666666)"></rect><rect width="4.789473684210526" height="33.333333333333336" x="433.96889952153117" y="650" stroke="none" fill="hsla(0, 0%, 0%, 1)" rx="2.394736842105263" transform="rotate(45, 436.36363636363643, 666.6666666666666)"></rect><rect width="33.333333333333336" height="4.789473684210526" x="492.4242424242425" y="664.2719298245613" stroke="none" fill="hsla(0, 0%, 0%, 1)" rx="2.394736842105263" transform="rotate(45, 509.0909090909092, 666.6666666666666)"></rect><rect width="4.789473684210526" height="33.333333333333336" x="506.6961722488039" y="650" stroke="none" fill="hsla(0, 0%, 0%, 1)" rx="2.394736842105263" transform="rotate(45, 509.0909090909092, 666.6666666666666)"></rect><rect width="33.333333333333336" height="4.789473684210526" x="565.1515151515152" y="664.2719298245613" stroke="none" fill="hsla(0, 0%, 0%, 1)" rx="2.394736842105263" transform="rotate(45, 581.8181818181819, 666.6666666666666)"></rect><rect width="4.789473684210526" height="33.333333333333336" x="579.4234449760766" y="650" stroke="none" fill="hsla(0, 0%, 0%, 1)" rx="2.394736842105263" transform="rotate(45, 581.8181818181819, 666.6666666666666)"></rect><rect width="33.333333333333336" height="4.789473684210526" x="637.878787878788" y="664.2719298245613" stroke="none" fill="hsla(0, 0%, 0%, 1)" rx="2.394736842105263" transform="rotate(45, 654.5454545454546, 666.6666666666666)"></rect><rect width="4.789473684210526" height="33.333333333333336" x="652.1507177033493" y="650" stroke="none" fill="hsla(0, 0%, 0%, 1)" rx="2.394736842105263" transform="rotate(45, 654.5454545454546, 666.6666666666666)"></rect><rect width="33.333333333333336" height="4.789473684210526" x="710.6060606060607" y="664.2719298245613" stroke="none" fill="hsla(0, 0%, 0%, 1)" rx="2.394736842105263" transform="rotate(45, 727.2727272727274, 666.6666666666666)"></rect><rect width="4.789473684210526" height="33.333333333333336" x="724.877990430622" y="650" stroke="none" fill="hsla(0, 0%, 0%, 1)" rx="2.394736842105263" transform="rotate(45, 727.2727272727274, 666.6666666666666)"></rect><rect width="33.333333333333336" height="4.789473684210526" x="783.3333333333335" y="664.2719298245613" stroke="none" fill="hsla(0, 0%, 0%, 1)" rx="2.394736842105263" transform="rotate(45, 800.0000000000001, 666.6666666666666)"></rect><rect width="4.789473684210526" height="33.333333333333336" x="797.6052631578948" y="650" stroke="none" fill="hsla(0, 0%, 0%, 1)" rx="2.394736842105263" transform="rotate(45, 800.0000000000001, 666.6666666666666)"></rect><rect width="33.333333333333336" height="4.789473684210526" x="-16.666666666666668" y="730.9385964912279" stroke="none" fill="hsla(0, 0%, 0%, 1)" rx="2.394736842105263" transform="rotate(45, 0, 733.3333333333333)"></rect><rect width="4.789473684210526" height="33.333333333333336" x="-2.394736842105263" y="716.6666666666666" stroke="none" fill="hsla(0, 0%, 0%, 1)" rx="2.394736842105263" transform="rotate(45, 0, 733.3333333333333)"></rect><rect width="33.333333333333336" height="4.789473684210526" x="56.06060606060606" y="730.9385964912279" stroke="none" fill="hsla(0, 0%, 0%, 1)" rx="2.394736842105263" transform="rotate(45, 72.72727272727273, 733.3333333333333)"></rect><rect width="4.789473684210526" height="33.333333333333336" x="70.33253588516747" y="716.6666666666666" stroke="none" fill="hsla(0, 0%, 0%, 1)" rx="2.394736842105263" transform="rotate(45, 72.72727272727273, 733.3333333333333)"></rect><rect width="33.333333333333336" height="4.789473684210526" x="128.7878787878788" y="730.9385964912279" stroke="none" fill="hsla(0, 0%, 0%, 1)" rx="2.394736842105263" transform="rotate(45, 145.45454545454547, 733.3333333333333)"></rect><rect width="4.789473684210526" height="33.333333333333336" x="143.0598086124402" y="716.6666666666666" stroke="none" fill="hsla(0, 0%, 0%, 1)" rx="2.394736842105263" transform="rotate(45, 145.45454545454547, 733.3333333333333)"></rect><rect width="33.333333333333336" height="4.789473684210526" x="201.51515151515153" y="730.9385964912279" stroke="none" fill="hsla(0, 0%, 0%, 1)" rx="2.394736842105263" transform="rotate(45, 218.1818181818182, 733.3333333333333)"></rect><rect width="4.789473684210526" height="33.333333333333336" x="215.78708133971293" y="716.6666666666666" stroke="none" fill="hsla(0, 0%, 0%, 1)" rx="2.394736842105263" transform="rotate(45, 218.1818181818182, 733.3333333333333)"></rect><rect width="33.333333333333336" height="4.789473684210526" x="274.24242424242425" y="730.9385964912279" stroke="none" fill="hsla(0, 0%, 0%, 1)" rx="2.394736842105263" transform="rotate(45, 290.90909090909093, 733.3333333333333)"></rect><rect width="4.789473684210526" height="33.333333333333336" x="288.5143540669857" y="716.6666666666666" stroke="none" fill="hsla(0, 0%, 0%, 1)" rx="2.394736842105263" transform="rotate(45, 290.90909090909093, 733.3333333333333)"></rect><rect width="33.333333333333336" height="4.789473684210526" x="346.969696969697" y="730.9385964912279" stroke="none" fill="hsla(0, 0%, 0%, 1)" rx="2.394736842105263" transform="rotate(45, 363.6363636363637, 733.3333333333333)"></rect><rect width="4.789473684210526" height="33.333333333333336" x="361.2416267942584" y="716.6666666666666" stroke="none" fill="hsla(0, 0%, 0%, 1)" rx="2.394736842105263" transform="rotate(45, 363.6363636363637, 733.3333333333333)"></rect><rect width="33.333333333333336" height="4.789473684210526" x="419.69696969696975" y="730.9385964912279" stroke="none" fill="hsla(0, 0%, 0%, 1)" rx="2.394736842105263" transform="rotate(45, 436.36363636363643, 733.3333333333333)"></rect><rect width="4.789473684210526" height="33.333333333333336" x="433.96889952153117" y="716.6666666666666" stroke="none" fill="hsla(0, 0%, 0%, 1)" rx="2.394736842105263" transform="rotate(45, 436.36363636363643, 733.3333333333333)"></rect><rect width="33.333333333333336" height="4.789473684210526" x="492.4242424242425" y="730.9385964912279" stroke="none" fill="hsla(0, 0%, 0%, 1)" rx="2.394736842105263" transform="rotate(45, 509.0909090909092, 733.3333333333333)"></rect><rect width="4.789473684210526" height="33.333333333333336" x="506.6961722488039" y="716.6666666666666" stroke="none" fill="hsla(0, 0%, 0%, 1)" rx="2.394736842105263" transform="rotate(45, 509.0909090909092, 733.3333333333333)"></rect><rect width="33.333333333333336" height="4.789473684210526" x="565.1515151515152" y="730.9385964912279" stroke="none" fill="hsla(0, 0%, 0%, 1)" rx="2.394736842105263" transform="rotate(45, 581.8181818181819, 733.3333333333333)"></rect><rect width="4.789473684210526" height="33.333333333333336" x="579.4234449760766" y="716.6666666666666" stroke="none" fill="hsla(0, 0%, 0%, 1)" rx="2.394736842105263" transform="rotate(45, 581.8181818181819, 733.3333333333333)"></rect><rect width="33.333333333333336" height="4.789473684210526" x="637.878787878788" y="730.9385964912279" stroke="none" fill="hsla(0, 0%, 0%, 1)" rx="2.394736842105263" transform="rotate(45, 654.5454545454546, 733.3333333333333)"></rect><rect width="4.789473684210526" height="33.333333333333336" x="652.1507177033493" y="716.6666666666666" stroke="none" fill="hsla(0, 0%, 0%, 1)" rx="2.394736842105263" transform="rotate(45, 654.5454545454546, 733.3333333333333)"></rect><rect width="33.333333333333336" height="4.789473684210526" x="710.6060606060607" y="730.9385964912279" stroke="none" fill="hsla(0, 0%, 0%, 1)" rx="2.394736842105263" transform="rotate(45, 727.2727272727274, 733.3333333333333)"></rect><rect width="4.789473684210526" height="33.333333333333336" x="724.877990430622" y="716.6666666666666" stroke="none" fill="hsla(0, 0%, 0%, 1)" rx="2.394736842105263" transform="rotate(45, 727.2727272727274, 733.3333333333333)"></rect><rect width="33.333333333333336" height="4.789473684210526" x="783.3333333333335" y="730.9385964912279" stroke="none" fill="hsla(0, 0%, 0%, 1)" rx="2.394736842105263" transform="rotate(45, 800.0000000000001, 733.3333333333333)"></rect><rect width="4.789473684210526" height="33.333333333333336" x="797.6052631578948" y="716.6666666666666" stroke="none" fill="hsla(0, 0%, 0%, 1)" rx="2.394736842105263" transform="rotate(45, 800.0000000000001, 733.3333333333333)"></rect><rect width="33.333333333333336" height="4.789473684210526" x="-16.666666666666668" y="797.6052631578946" stroke="none" fill="hsla(0, 0%, 0%, 1)" rx="2.394736842105263" transform="rotate(45, 0, 799.9999999999999)"></rect><rect width="4.789473684210526" height="33.333333333333336" x="-2.394736842105263" y="783.3333333333333" stroke="none" fill="hsla(0, 0%, 0%, 1)" rx="2.394736842105263" transform="rotate(45, 0, 799.9999999999999)"></rect><rect width="33.333333333333336" height="4.789473684210526" x="56.06060606060606" y="797.6052631578946" stroke="none" fill="hsla(0, 0%, 0%, 1)" rx="2.394736842105263" transform="rotate(45, 72.72727272727273, 799.9999999999999)"></rect><rect width="4.789473684210526" height="33.333333333333336" x="70.33253588516747" y="783.3333333333333" stroke="none" fill="hsla(0, 0%, 0%, 1)" rx="2.394736842105263" transform="rotate(45, 72.72727272727273, 799.9999999999999)"></rect><rect width="33.333333333333336" height="4.789473684210526" x="128.7878787878788" y="797.6052631578946" stroke="none" fill="hsla(0, 0%, 0%, 1)" rx="2.394736842105263" transform="rotate(45, 145.45454545454547, 799.9999999999999)"></rect><rect width="4.789473684210526" height="33.333333333333336" x="143.0598086124402" y="783.3333333333333" stroke="none" fill="hsla(0, 0%, 0%, 1)" rx="2.394736842105263" transform="rotate(45, 145.45454545454547, 799.9999999999999)"></rect><rect width="33.333333333333336" height="4.789473684210526" x="201.51515151515153" y="797.6052631578946" stroke="none" fill="hsla(0, 0%, 0%, 1)" rx="2.394736842105263" transform="rotate(45, 218.1818181818182, 799.9999999999999)"></rect><rect width="4.789473684210526" height="33.333333333333336" x="215.78708133971293" y="783.3333333333333" stroke="none" fill="hsla(0, 0%, 0%, 1)" rx="2.394736842105263" transform="rotate(45, 218.1818181818182, 799.9999999999999)"></rect><rect width="33.333333333333336" height="4.789473684210526" x="274.24242424242425" y="797.6052631578946" stroke="none" fill="hsla(0, 0%, 0%, 1)" rx="2.394736842105263" transform="rotate(45, 290.90909090909093, 799.9999999999999)"></rect><rect width="4.789473684210526" height="33.333333333333336" x="288.5143540669857" y="783.3333333333333" stroke="none" fill="hsla(0, 0%, 0%, 1)" rx="2.394736842105263" transform="rotate(45, 290.90909090909093, 799.9999999999999)"></rect><rect width="33.333333333333336" height="4.789473684210526" x="346.969696969697" y="797.6052631578946" stroke="none" fill="hsla(0, 0%, 0%, 1)" rx="2.394736842105263" transform="rotate(45, 363.6363636363637, 799.9999999999999)"></rect><rect width="4.789473684210526" height="33.333333333333336" x="361.2416267942584" y="783.3333333333333" stroke="none" fill="hsla(0, 0%, 0%, 1)" rx="2.394736842105263" transform="rotate(45, 363.6363636363637, 799.9999999999999)"></rect><rect width="33.333333333333336" height="4.789473684210526" x="419.69696969696975" y="797.6052631578946" stroke="none" fill="hsla(0, 0%, 0%, 1)" rx="2.394736842105263" transform="rotate(45, 436.36363636363643, 799.9999999999999)"></rect><rect width="4.789473684210526" height="33.333333333333336" x="433.96889952153117" y="783.3333333333333" stroke="none" fill="hsla(0, 0%, 0%, 1)" rx="2.394736842105263" transform="rotate(45, 436.36363636363643, 799.9999999999999)"></rect><rect width="33.333333333333336" height="4.789473684210526" x="492.4242424242425" y="797.6052631578946" stroke="none" fill="hsla(0, 0%, 0%, 1)" rx="2.394736842105263" transform="rotate(45, 509.0909090909092, 799.9999999999999)"></rect><rect width="4.789473684210526" height="33.333333333333336" x="506.6961722488039" y="783.3333333333333" stroke="none" fill="hsla(0, 0%, 0%, 1)" rx="2.394736842105263" transform="rotate(45, 509.0909090909092, 799.9999999999999)"></rect><rect width="33.333333333333336" height="4.789473684210526" x="565.1515151515152" y="797.6052631578946" stroke="none" fill="hsla(0, 0%, 0%, 1)" rx="2.394736842105263" transform="rotate(45, 581.8181818181819, 799.9999999999999)"></rect><rect width="4.789473684210526" height="33.333333333333336" x="579.4234449760766" y="783.3333333333333" stroke="none" fill="hsla(0, 0%, 0%, 1)" rx="2.394736842105263" transform="rotate(45, 581.8181818181819, 799.9999999999999)"></rect><rect width="33.333333333333336" height="4.789473684210526" x="637.878787878788" y="797.6052631578946" stroke="none" fill="hsla(0, 0%, 0%, 1)" rx="2.394736842105263" transform="rotate(45, 654.5454545454546, 799.9999999999999)"></rect><rect width="4.789473684210526" height="33.333333333333336" x="652.1507177033493" y="783.3333333333333" stroke="none" fill="hsla(0, 0%, 0%, 1)" rx="2.394736842105263" transform="rotate(45, 654.5454545454546, 799.9999999999999)"></rect><rect width="33.333333333333336" height="4.789473684210526" x="710.6060606060607" y="797.6052631578946" stroke="none" fill="hsla(0, 0%, 0%, 1)" rx="2.394736842105263" transform="rotate(45, 727.2727272727274, 799.9999999999999)"></rect><rect width="4.789473684210526" height="33.333333333333336" x="724.877990430622" y="783.3333333333333" stroke="none" fill="hsla(0, 0%, 0%, 1)" rx="2.394736842105263" transform="rotate(45, 727.2727272727274, 799.9999999999999)"></rect><rect width="33.333333333333336" height="4.789473684210526" x="783.3333333333335" y="797.6052631578946" stroke="none" fill="hsla(0, 0%, 0%, 1)" rx="2.394736842105263" transform="rotate(45, 800.0000000000001, 799.9999999999999)"></rect><rect width="4.789473684210526" height="33.333333333333336" x="797.6052631578948" y="783.3333333333333" stroke="none" fill="hsla(0, 0%, 0%, 1)" rx="2.394736842105263" transform="rotate(45, 800.0000000000001, 799.9999999999999)"></rect></g></svg>