<svg xmlns="http://www.w3.org/2000/svg" version="1.1" xmlns:xlink="http://www.w3.org/1999/xlink" xmlns:svgjs="http://svgjs.com/svgjs" width="1440" height="560" preserveAspectRatio="none" viewBox="0 0 1440 560"><g mask="url(&quot;#SvgjsMask1004&quot;)" fill="none"><path d="M-91.94 517L-91.94 517" stroke="#132e65" stroke-width="1.5"></path><path d="M-91.94 517L58.58 503.62" stroke="#132e65" stroke-width="1.5"></path><path d="M-91.94 517L70.63 637.76" stroke="#132e65" stroke-width="1.5"></path><path d="M-91.94 517L211.18 494.3" stroke="#132e65" stroke-width="1.5"></path><path d="M58.58 503.62L58.58 503.62" stroke="#132e65" stroke-width="1.5"></path><path d="M58.58 503.62L70.63 637.76" stroke="#132e65" stroke-width="1.5"></path><path d="M58.58 503.62L211.18 494.3" stroke="#132e65" stroke-width="1.5"></path><path d="M58.58 503.62L197.83 377.33" stroke="#132e65" stroke-width="1.5"></path><path d="M70.63 637.76L70.63 637.76" stroke="#132e65" stroke-width="1.5"></path><path d="M70.63 637.76L258.02 645.03" stroke="#132e65" stroke-width="1.5"></path><path d="M70.63 637.76L211.18 494.3" stroke="#132e65" stroke-width="1.5"></path><path d="M70.63 637.76L197.83 377.33" stroke="#132e65" stroke-width="1.5"></path><path d="M70.63 637.76L366.68 697.65" stroke="#132e65" stroke-width="1.5"></path><path d="M197.83 377.33L197.83 377.33" stroke="#132e65" stroke-width="1.5"></path><path d="M197.83 377.33L211.18 494.3" stroke="#132e65" stroke-width="1.5"></path><path d="M211.18 494.3L211.18 494.3" stroke="#132e65" stroke-width="1.5"></path><path d="M211.18 494.3L258.02 645.03" stroke="#132e65" stroke-width="1.5"></path><path d="M211.18 494.3L366.47 541.27" stroke="#132e65" stroke-width="1.5"></path><path d="M258.02 645.03L258.02 645.03" stroke="#132e65" stroke-width="1.5"></path><path d="M258.02 645.03L366.68 697.65" stroke="#132e65" stroke-width="1.5"></path><path d="M258.02 645.03L366.47 541.27" stroke="#132e65" stroke-width="1.5"></path><path d="M258.02 645.03L58.58 503.62" stroke="#132e65" stroke-width="1.5"></path><path d="M390.85 357.15L390.85 357.15" stroke="#132e65" stroke-width="1.5"></path><path d="M390.85 357.15L528.44 400.94" stroke="#132e65" stroke-width="1.5"></path><path d="M390.85 357.15L493.91 501.25" stroke="#132e65" stroke-width="1.5"></path><path d="M390.85 357.15L366.47 541.27" stroke="#132e65" stroke-width="1.5"></path><path d="M366.47 541.27L366.47 541.27" stroke="#132e65" stroke-width="1.5"></path><path d="M366.47 541.27L493.91 501.25" stroke="#132e65" stroke-width="1.5"></path><path d="M366.47 541.27L366.68 697.65" stroke="#132e65" stroke-width="1.5"></path><path d="M366.68 697.65L366.68 697.65" stroke="#132e65" stroke-width="1.5"></path><path d="M366.68 697.65L493.91 501.25" stroke="#132e65" stroke-width="1.5"></path><path d="M366.68 697.65L211.18 494.3" stroke="#132e65" stroke-width="1.5"></path><path d="M528.44 400.94L528.44 400.94" stroke="#132e65" stroke-width="1.5"></path><path d="M528.44 400.94L493.91 501.25" stroke="#132e65" stroke-width="1.5"></path><path d="M528.44 400.94L686.95 360.61" stroke="#132e65" stroke-width="1.5"></path><path d="M528.44 400.94L693.58 509.74" stroke="#132e65" stroke-width="1.5"></path><path d="M528.44 400.94L366.47 541.27" stroke="#132e65" stroke-width="1.5"></path><path d="M493.91 501.25L493.91 501.25" stroke="#132e65" stroke-width="1.5"></path><path d="M702.73 203.59L702.73 203.59" stroke="#132e65" stroke-width="1.5"></path><path d="M702.73 203.59L821.53 228.44" stroke="#132e65" stroke-width="1.5"></path><path d="M702.73 203.59L686.95 360.61" stroke="#132e65" stroke-width="1.5"></path><path d="M702.73 203.59L528.44 400.94" stroke="#132e65" stroke-width="1.5"></path><path d="M702.73 203.59L693.58 509.74" stroke="#132e65" stroke-width="1.5"></path><path d="M702.73 203.59L1009.2 207.78" stroke="#132e65" stroke-width="1.5"></path><path d="M702.73 203.59L847.72 494.35" stroke="#132e65" stroke-width="1.5"></path><path d="M686.95 360.61L686.95 360.61" stroke="#132e65" stroke-width="1.5"></path><path d="M686.95 360.61L693.58 509.74" stroke="#132e65" stroke-width="1.5"></path><path d="M693.58 509.74L693.58 509.74" stroke="#132e65" stroke-width="1.5"></path><path d="M693.58 509.74L847.72 494.35" stroke="#132e65" stroke-width="1.5"></path><path d="M693.58 509.74L663.86 670.33" stroke="#132e65" stroke-width="1.5"></path><path d="M693.58 509.74L493.91 501.25" stroke="#132e65" stroke-width="1.5"></path><path d="M663.86 670.33L663.86 670.33" stroke="#132e65" stroke-width="1.5"></path><path d="M663.86 670.33L808.1 707.38" stroke="#132e65" stroke-width="1.5"></path><path d="M821.53 228.44L821.53 228.44" stroke="#132e65" stroke-width="1.5"></path><path d="M821.53 228.44L686.95 360.61" stroke="#132e65" stroke-width="1.5"></path><path d="M821.53 228.44L1009.2 207.78" stroke="#132e65" stroke-width="1.5"></path><path d="M821.53 228.44L988.07 388.69" stroke="#132e65" stroke-width="1.5"></path><path d="M821.53 228.44L1009.79 51.54" stroke="#132e65" stroke-width="1.5"></path><path d="M821.53 228.44L847.72 494.35" stroke="#132e65" stroke-width="1.5"></path><path d="M847.72 494.35L847.72 494.35" stroke="#132e65" stroke-width="1.5"></path><path d="M847.72 494.35L1008.03 553.59" stroke="#132e65" stroke-width="1.5"></path><path d="M847.72 494.35L988.07 388.69" stroke="#132e65" stroke-width="1.5"></path><path d="M847.72 494.35L982.65 640.96" stroke="#132e65" stroke-width="1.5"></path><path d="M808.1 707.38L808.1 707.38" stroke="#132e65" stroke-width="1.5"></path><path d="M808.1 707.38L982.65 640.96" stroke="#132e65" stroke-width="1.5"></path><path d="M808.1 707.38L847.72 494.35" stroke="#132e65" stroke-width="1.5"></path><path d="M808.1 707.38L693.58 509.74" stroke="#132e65" stroke-width="1.5"></path><path d="M808.1 707.38L1008.03 553.59" stroke="#132e65" stroke-width="1.5"></path><path d="M1009.79 51.54L1009.79 51.54" stroke="#132e65" stroke-width="1.5"></path><path d="M1009.79 51.54L1136.3 77.04" stroke="#132e65" stroke-width="1.5"></path><path d="M1009.79 51.54L1128.1 -48.65" stroke="#132e65" stroke-width="1.5"></path><path d="M1009.79 51.54L1009.2 207.78" stroke="#132e65" stroke-width="1.5"></path><path d="M1009.2 207.78L1009.2 207.78" stroke="#132e65" stroke-width="1.5"></path><path d="M1009.2 207.78L1142.02 193.29" stroke="#132e65" stroke-width="1.5"></path><path d="M988.07 388.69L988.07 388.69" stroke="#132e65" stroke-width="1.5"></path><path d="M988.07 388.69L1100.06 364.84" stroke="#132e65" stroke-width="1.5"></path><path d="M988.07 388.69L1008.03 553.59" stroke="#132e65" stroke-width="1.5"></path><path d="M988.07 388.69L1009.2 207.78" stroke="#132e65" stroke-width="1.5"></path><path d="M988.07 388.69L1151.82 489.26" stroke="#132e65" stroke-width="1.5"></path><path d="M1008.03 553.59L1008.03 553.59" stroke="#132e65" stroke-width="1.5"></path><path d="M1008.03 553.59L982.65 640.96" stroke="#132e65" stroke-width="1.5"></path><path d="M1008.03 553.59L1128.06 648.63" stroke="#132e65" stroke-width="1.5"></path><path d="M982.65 640.96L982.65 640.96" stroke="#132e65" stroke-width="1.5"></path><path d="M982.65 640.96L1128.06 648.63" stroke="#132e65" stroke-width="1.5"></path><path d="M1128.1 -48.65L1128.1 -48.65" stroke="#132e65" stroke-width="1.5"></path><path d="M1128.1 -48.65L1136.3 77.04" stroke="#132e65" stroke-width="1.5"></path><path d="M1128.1 -48.65L1246.09 88.62" stroke="#132e65" stroke-width="1.5"></path><path d="M1136.3 77.04L1136.3 77.04" stroke="#132e65" stroke-width="1.5"></path><path d="M1136.3 77.04L1246.09 88.62" stroke="#132e65" stroke-width="1.5"></path><path d="M1136.3 77.04L1142.02 193.29" stroke="#132e65" stroke-width="1.5"></path><path d="M1136.3 77.04L1009.2 207.78" stroke="#132e65" stroke-width="1.5"></path><path d="M1142.02 193.29L1142.02 193.29" stroke="#132e65" stroke-width="1.5"></path><path d="M1100.06 364.84L1100.06 364.84" stroke="#132e65" stroke-width="1.5"></path><path d="M1100.06 364.84L1151.82 489.26" stroke="#132e65" stroke-width="1.5"></path><path d="M1100.06 364.84L1142.02 193.29" stroke="#132e65" stroke-width="1.5"></path><path d="M1100.06 364.84L1009.2 207.78" stroke="#132e65" stroke-width="1.5"></path><path d="M1100.06 364.84L1298.01 371.3" stroke="#132e65" stroke-width="1.5"></path><path d="M1100.06 364.84L1008.03 553.59" stroke="#132e65" stroke-width="1.5"></path><path d="M1151.82 489.26L1151.82 489.26" stroke="#132e65" stroke-width="1.5"></path><path d="M1151.82 489.26L1008.03 553.59" stroke="#132e65" stroke-width="1.5"></path><path d="M1151.82 489.26L1128.06 648.63" stroke="#132e65" stroke-width="1.5"></path><path d="M1151.82 489.26L1301.46 551.16" stroke="#132e65" stroke-width="1.5"></path><path d="M1128.06 648.63L1128.06 648.63" stroke="#132e65" stroke-width="1.5"></path><path d="M1246.09 88.62L1246.09 88.62" stroke="#132e65" stroke-width="1.5"></path><path d="M1246.09 88.62L1297.9 204.94" stroke="#132e65" stroke-width="1.5"></path><path d="M1246.09 88.62L1142.02 193.29" stroke="#132e65" stroke-width="1.5"></path><path d="M1297.9 204.94L1297.9 204.94" stroke="#132e65" stroke-width="1.5"></path><path d="M1297.9 204.94L1400.06 204.13" stroke="#132e65" stroke-width="1.5"></path><path d="M1298.01 371.3L1298.01 371.3" stroke="#132e65" stroke-width="1.5"></path><path d="M1298.01 371.3L1424.61 384.89" stroke="#132e65" stroke-width="1.5"></path><path d="M1298.01 371.3L1297.9 204.94" stroke="#132e65" stroke-width="1.5"></path><path d="M1298.01 371.3L1301.46 551.16" stroke="#132e65" stroke-width="1.5"></path><path d="M1298.01 371.3L1151.82 489.26" stroke="#132e65" stroke-width="1.5"></path><path d="M1298.01 371.3L1400.06 204.13" stroke="#132e65" stroke-width="1.5"></path><path d="M1301.46 551.16L1301.46 551.16" stroke="#132e65" stroke-width="1.5"></path><path d="M1301.46 551.16L1273.66 677.47" stroke="#132e65" stroke-width="1.5"></path><path d="M1301.46 551.16L1409.06 697.21" stroke="#132e65" stroke-width="1.5"></path><path d="M1301.46 551.16L1128.06 648.63" stroke="#132e65" stroke-width="1.5"></path><path d="M1273.66 677.47L1273.66 677.47" stroke="#132e65" stroke-width="1.5"></path><path d="M1273.66 677.47L1409.06 697.21" stroke="#132e65" stroke-width="1.5"></path><path d="M1273.66 677.47L1128.06 648.63" stroke="#132e65" stroke-width="1.5"></path><path d="M1273.66 677.47L1151.82 489.26" stroke="#132e65" stroke-width="1.5"></path><path d="M1273.66 677.47L1551.46 652.83" stroke="#132e65" stroke-width="1.5"></path><path d="M1273.66 677.47L1008.03 553.59" stroke="#132e65" stroke-width="1.5"></path><path d="M1445.87 -39.34L1445.87 -39.34" stroke="#132e65" stroke-width="1.5"></path><path d="M1445.87 -39.34L1458.88 86.99" stroke="#132e65" stroke-width="1.5"></path><path d="M1445.87 -39.34L1573.3 -47.19" stroke="#132e65" stroke-width="1.5"></path><path d="M1445.87 -39.34L1555.09 95.61" stroke="#132e65" stroke-width="1.5"></path><path d="M1445.87 -39.34L1246.09 88.62" stroke="#132e65" stroke-width="1.5"></path><path d="M1445.87 -39.34L1400.06 204.13" stroke="#132e65" stroke-width="1.5"></path><path d="M1458.88 86.99L1458.88 86.99" stroke="#132e65" stroke-width="1.5"></path><path d="M1458.88 86.99L1555.09 95.61" stroke="#132e65" stroke-width="1.5"></path><path d="M1400.06 204.13L1400.06 204.13" stroke="#132e65" stroke-width="1.5"></path><path d="M1400.06 204.13L1458.88 86.99" stroke="#132e65" stroke-width="1.5"></path><path d="M1400.06 204.13L1424.61 384.89" stroke="#132e65" stroke-width="1.5"></path><path d="M1400.06 204.13L1586.65 203.94" stroke="#132e65" stroke-width="1.5"></path><path d="M1400.06 204.13L1555.09 95.61" stroke="#132e65" stroke-width="1.5"></path><path d="M1424.61 384.89L1424.61 384.89" stroke="#132e65" stroke-width="1.5"></path><path d="M1424.61 384.89L1545.66 384.31" stroke="#132e65" stroke-width="1.5"></path><path d="M1409.06 697.21L1409.06 697.21" stroke="#132e65" stroke-width="1.5"></path><path d="M1409.06 697.21L1551.46 652.83" stroke="#132e65" stroke-width="1.5"></path><path d="M1409.06 697.21L1595.63 560.36" stroke="#132e65" stroke-width="1.5"></path><path d="M1573.3 -47.19L1573.3 -47.19" stroke="#132e65" stroke-width="1.5"></path><path d="M1573.3 -47.19L1555.09 95.61" stroke="#132e65" stroke-width="1.5"></path><path d="M1555.09 95.61L1555.09 95.61" stroke="#132e65" stroke-width="1.5"></path><path d="M1555.09 95.61L1586.65 203.94" stroke="#132e65" stroke-width="1.5"></path><path d="M1555.09 95.61L1297.9 204.94" stroke="#132e65" stroke-width="1.5"></path><path d="M1586.65 203.94L1586.65 203.94" stroke="#132e65" stroke-width="1.5"></path><path d="M1586.65 203.94L1458.88 86.99" stroke="#132e65" stroke-width="1.5"></path><path d="M1545.66 384.31L1545.66 384.31" stroke="#132e65" stroke-width="1.5"></path><path d="M1545.66 384.31L1595.63 560.36" stroke="#132e65" stroke-width="1.5"></path><path d="M1595.63 560.36L1595.63 560.36" stroke="#132e65" stroke-width="1.5"></path><path d="M1595.63 560.36L1551.46 652.83" stroke="#132e65" stroke-width="1.5"></path><path d="M1551.46 652.83L1551.46 652.83" stroke="#132e65" stroke-width="1.5"></path><circle r="5" cx="-91.94" cy="517" fill="#132e65"></circle><circle r="5" cx="58.58" cy="503.62" fill="#132e65"></circle><circle r="5" cx="70.63" cy="637.76" fill="#132e65"></circle><circle r="5" cx="197.83" cy="377.33" fill="#132e65"></circle><circle r="5" cx="211.18" cy="494.3" fill="#132e65"></circle><circle r="5" cx="258.02" cy="645.03" fill="#132e65"></circle><circle r="5" cx="390.85" cy="357.15" fill="#132e65"></circle><circle r="5" cx="366.47" cy="541.27" fill="#132e65"></circle><circle r="5" cx="366.68" cy="697.65" fill="#132e65"></circle><circle r="5" cx="528.44" cy="400.94" fill="#132e65"></circle><circle r="5" cx="493.91" cy="501.25" fill="#132e65"></circle><circle r="5" cx="702.73" cy="203.59" fill="#132e65"></circle><circle r="5" cx="686.95" cy="360.61" fill="#132e65"></circle><circle r="5" cx="693.58" cy="509.74" fill="#132e65"></circle><circle r="5" cx="663.86" cy="670.33" fill="#132e65"></circle><circle r="5" cx="821.53" cy="228.44" fill="#132e65"></circle><circle r="5" cx="847.72" cy="494.35" fill="#132e65"></circle><circle r="5" cx="808.1" cy="707.38" fill="#132e65"></circle><circle r="5" cx="1009.79" cy="51.54" fill="#132e65"></circle><circle r="5" cx="1009.2" cy="207.78" fill="#132e65"></circle><circle r="5" cx="988.07" cy="388.69" fill="#132e65"></circle><circle r="5" cx="1008.03" cy="553.59" fill="#132e65"></circle><circle r="5" cx="982.65" cy="640.96" fill="#132e65"></circle><circle r="5" cx="1128.1" cy="-48.65" fill="#132e65"></circle><circle r="5" cx="1136.3" cy="77.04" fill="#132e65"></circle><circle r="5" cx="1142.02" cy="193.29" fill="#132e65"></circle><circle r="5" cx="1100.06" cy="364.84" fill="#132e65"></circle><circle r="5" cx="1151.82" cy="489.26" fill="#132e65"></circle><circle r="5" cx="1128.06" cy="648.63" fill="#132e65"></circle><circle r="5" cx="1246.09" cy="88.62" fill="#132e65"></circle><circle r="5" cx="1297.9" cy="204.94" fill="#132e65"></circle><circle r="5" cx="1298.01" cy="371.3" fill="#132e65"></circle><circle r="5" cx="1301.46" cy="551.16" fill="#132e65"></circle><circle r="5" cx="1273.66" cy="677.47" fill="#132e65"></circle><circle r="5" cx="1445.87" cy="-39.34" fill="#132e65"></circle><circle r="5" cx="1458.88" cy="86.99" fill="#132e65"></circle><circle r="5" cx="1400.06" cy="204.13" fill="#132e65"></circle><circle r="5" cx="1424.61" cy="384.89" fill="#132e65"></circle><circle r="5" cx="1409.06" cy="697.21" fill="#132e65"></circle><circle r="5" cx="1573.3" cy="-47.19" fill="#132e65"></circle><circle r="5" cx="1555.09" cy="95.61" fill="#132e65"></circle><circle r="5" cx="1586.65" cy="203.94" fill="#132e65"></circle><circle r="5" cx="1545.66" cy="384.31" fill="#132e65"></circle><circle r="5" cx="1595.63" cy="560.36" fill="#132e65"></circle><circle r="5" cx="1551.46" cy="652.83" fill="#132e65"></circle><path d="M343.25 697.67L343.25 697.67" stroke="hsl(0, 0%, 0%)" stroke-width="1.5"></path><path d="M343.25 697.67L216.61 669.88" stroke="hsl(0, 0%, 0%)" stroke-width="1.5"></path><path d="M343.25 697.67L352.88 554.59" stroke="hsl(0, 0%, 0%)" stroke-width="1.5"></path><path d="M510.82 529.79L510.82 529.79" stroke="hsl(0, 0%, 0%)" stroke-width="1.5"></path><path d="M510.82 529.79L538.07 666.01" stroke="hsl(0, 0%, 0%)" stroke-width="1.5"></path><path d="M510.82 529.79L352.88 554.59" stroke="hsl(0, 0%, 0%)" stroke-width="1.5"></path><path d="M538.07 666.01L538.07 666.01" stroke="hsl(0, 0%, 0%)" stroke-width="1.5"></path><path d="M538.07 666.01L699.46 687.17" stroke="hsl(0, 0%, 0%)" stroke-width="1.5"></path><path d="M538.07 666.01L343.25 697.67" stroke="hsl(0, 0%, 0%)" stroke-width="1.5"></path><path d="M538.07 666.01L675.05 506.79" stroke="hsl(0, 0%, 0%)" stroke-width="1.5"></path><path d="M538.07 666.01L352.88 554.59" stroke="hsl(0, 0%, 0%)" stroke-width="1.5"></path><path d="M538.07 666.01L666.1 388.98" stroke="hsl(0, 0%, 0%)" stroke-width="1.5"></path><path d="M666.1 388.98L666.1 388.98" stroke="hsl(0, 0%, 0%)" stroke-width="1.5"></path><path d="M666.1 388.98L675.05 506.79" stroke="hsl(0, 0%, 0%)" stroke-width="1.5"></path><path d="M666.1 388.98L851.8 370.15" stroke="hsl(0, 0%, 0%)" stroke-width="1.5"></path><path d="M666.1 388.98L510.82 529.79" stroke="hsl(0, 0%, 0%)" stroke-width="1.5"></path><path d="M666.1 388.98L848.51 511.92" stroke="hsl(0, 0%, 0%)" stroke-width="1.5"></path><path d="M675.05 506.79L675.05 506.79" stroke="hsl(0, 0%, 0%)" stroke-width="1.5"></path><path d="M675.05 506.79L510.82 529.79" stroke="hsl(0, 0%, 0%)" stroke-width="1.5"></path><path d="M675.05 506.79L848.51 511.92" stroke="hsl(0, 0%, 0%)" stroke-width="1.5"></path><path d="M675.05 506.79L699.46 687.17" stroke="hsl(0, 0%, 0%)" stroke-width="1.5"></path><path d="M944.7 399.54L944.7 399.54" stroke="hsl(0, 0%, 0%)" stroke-width="1.5"></path><path d="M944.7 399.54L851.8 370.15" stroke="hsl(0, 0%, 0%)" stroke-width="1.5"></path><path d="M944.7 399.54L939.35 499.25" stroke="hsl(0, 0%, 0%)" stroke-width="1.5"></path><path d="M944.7 399.54L848.51 511.92" stroke="hsl(0, 0%, 0%)" stroke-width="1.5"></path><path d="M944.7 399.54L1110.02 355.47" stroke="hsl(0, 0%, 0%)" stroke-width="1.5"></path><path d="M1142.2 73.81L1142.2 73.81" stroke="hsl(0, 0%, 0%)" stroke-width="1.5"></path><path d="M1142.2 73.81L1246.49 44.7" stroke="hsl(0, 0%, 0%)" stroke-width="1.5"></path><path d="M1142.2 73.81L1109.61 188.07" stroke="hsl(0, 0%, 0%)" stroke-width="1.5"></path><path d="M1142.2 73.81L998.75 230.24" stroke="hsl(0, 0%, 0%)" stroke-width="1.5"></path><path d="M1142.2 73.81L1246.86 261.38" stroke="hsl(0, 0%, 0%)" stroke-width="1.5"></path><path d="M1142.2 73.81L1273.92 -110.77" stroke="hsl(0, 0%, 0%)" stroke-width="1.5"></path><path d="M1142.8 693.03L1142.8 693.03" stroke="hsl(0, 0%, 0%)" stroke-width="1.5"></path><path d="M1142.8 693.03L1006.77 660.69" stroke="hsl(0, 0%, 0%)" stroke-width="1.5"></path><path d="M1142.8 693.03L1290.59 691.83" stroke="hsl(0, 0%, 0%)" stroke-width="1.5"></path><path d="M1142.8 693.03L1251.96 495.64" stroke="hsl(0, 0%, 0%)" stroke-width="1.5"></path><path d="M1142.8 693.03L939.35 499.25" stroke="hsl(0, 0%, 0%)" stroke-width="1.5"></path><path d="M1142.8 693.03L1446.39 662.29" stroke="hsl(0, 0%, 0%)" stroke-width="1.5"></path><path d="M1246.86 261.38L1246.86 261.38" stroke="hsl(0, 0%, 0%)" stroke-width="1.5"></path><path d="M1246.86 261.38L1292.36 347.63" stroke="hsl(0, 0%, 0%)" stroke-width="1.5"></path><path d="M1246.86 261.38L1109.61 188.07" stroke="hsl(0, 0%, 0%)" stroke-width="1.5"></path><path d="M1292.36 347.63L1292.36 347.63" stroke="hsl(0, 0%, 0%)" stroke-width="1.5"></path><path d="M1292.36 347.63L1404.59 409.98" stroke="hsl(0, 0%, 0%)" stroke-width="1.5"></path><path d="M1292.36 347.63L1251.96 495.64" stroke="hsl(0, 0%, 0%)" stroke-width="1.5"></path><path d="M1292.36 347.63L1110.02 355.47" stroke="hsl(0, 0%, 0%)" stroke-width="1.5"></path><path d="M1292.36 347.63L1420.1 514.92" stroke="hsl(0, 0%, 0%)" stroke-width="1.5"></path><path d="M1411.61 -81.67L1411.61 -81.67" stroke="hsl(0, 0%, 0%)" stroke-width="1.5"></path><path d="M1411.61 -81.67L1540.43 -57.71" stroke="hsl(0, 0%, 0%)" stroke-width="1.5"></path><path d="M1411.61 -81.67L1273.92 -110.77" stroke="hsl(0, 0%, 0%)" stroke-width="1.5"></path><path d="M1404.59 409.98L1404.59 409.98" stroke="hsl(0, 0%, 0%)" stroke-width="1.5"></path><path d="M1404.59 409.98L1420.1 514.92" stroke="hsl(0, 0%, 0%)" stroke-width="1.5"></path><path d="M1404.59 409.98L1551.93 387.56" stroke="hsl(0, 0%, 0%)" stroke-width="1.5"></path><path d="M1551.93 387.56L1551.93 387.56" stroke="hsl(0, 0%, 0%)" stroke-width="1.5"></path><path d="M1551.93 387.56L1548.58 523.53" stroke="hsl(0, 0%, 0%)" stroke-width="1.5"></path><path d="M1551.93 387.56L1576.15 244.87" stroke="hsl(0, 0%, 0%)" stroke-width="1.5"></path><path d="M1551.93 387.56L1420.1 514.92" stroke="hsl(0, 0%, 0%)" stroke-width="1.5"></path><path d="M1551.93 387.56L1462.23 205.12" stroke="hsl(0, 0%, 0%)" stroke-width="1.5"></path><path d="M1551.93 387.56L1292.36 347.63" stroke="hsl(0, 0%, 0%)" stroke-width="1.5"></path><path d="M-98.89 536.48L-98.89 536.48" stroke="hsl(0, 0%, 0%)" stroke-width="1.5"></path><path d="M-98.89 536.48L-56.11 669.04" stroke="hsl(0, 0%, 0%)" stroke-width="1.5"></path><path d="M-98.89 536.48L84.61 512.11" stroke="hsl(0, 0%, 0%)" stroke-width="1.5"></path><path d="M-98.89 536.48L57.03 653.74" stroke="hsl(0, 0%, 0%)" stroke-width="1.5"></path><path d="M-98.89 536.48L216.61 669.88" stroke="hsl(0, 0%, 0%)" stroke-width="1.5"></path><path d="M-98.89 536.48L256.58 503.73" stroke="hsl(0, 0%, 0%)" stroke-width="1.5"></path><path d="M-98.89 536.48L352.88 554.59" stroke="hsl(0, 0%, 0%)" stroke-width="1.5"></path><path d="M-56.11 669.04L-56.11 669.04" stroke="hsl(0, 0%, 0%)" stroke-width="1.5"></path><path d="M-56.11 669.04L57.03 653.74" stroke="hsl(0, 0%, 0%)" stroke-width="1.5"></path><path d="M-56.11 669.04L84.61 512.11" stroke="hsl(0, 0%, 0%)" stroke-width="1.5"></path><path d="M-56.11 669.04L216.61 669.88" stroke="hsl(0, 0%, 0%)" stroke-width="1.5"></path><path d="M-56.11 669.04L256.58 503.73" stroke="hsl(0, 0%, 0%)" stroke-width="1.5"></path><path d="M84.61 512.11L84.61 512.11" stroke="hsl(0, 0%, 0%)" stroke-width="1.5"></path><path d="M84.61 512.11L57.03 653.74" stroke="hsl(0, 0%, 0%)" stroke-width="1.5"></path><path d="M84.61 512.11L256.58 503.73" stroke="hsl(0, 0%, 0%)" stroke-width="1.5"></path><path d="M84.61 512.11L216.61 669.88" stroke="hsl(0, 0%, 0%)" stroke-width="1.5"></path><path d="M57.03 653.74L57.03 653.74" stroke="hsl(0, 0%, 0%)" stroke-width="1.5"></path><path d="M57.03 653.74L216.61 669.88" stroke="hsl(0, 0%, 0%)" stroke-width="1.5"></path><path d="M57.03 653.74L256.58 503.73" stroke="hsl(0, 0%, 0%)" stroke-width="1.5"></path><path d="M57.03 653.74L343.25 697.67" stroke="hsl(0, 0%, 0%)" stroke-width="1.5"></path><path d="M256.58 503.73L256.58 503.73" stroke="hsl(0, 0%, 0%)" stroke-width="1.5"></path><path d="M256.58 503.73L352.88 554.59" stroke="hsl(0, 0%, 0%)" stroke-width="1.5"></path><path d="M256.58 503.73L216.61 669.88" stroke="hsl(0, 0%, 0%)" stroke-width="1.5"></path><path d="M256.58 503.73L343.25 697.67" stroke="hsl(0, 0%, 0%)" stroke-width="1.5"></path><path d="M256.58 503.73L510.82 529.79" stroke="hsl(0, 0%, 0%)" stroke-width="1.5"></path><path d="M216.61 669.88L216.61 669.88" stroke="hsl(0, 0%, 0%)" stroke-width="1.5"></path><path d="M216.61 669.88L352.88 554.59" stroke="hsl(0, 0%, 0%)" stroke-width="1.5"></path><path d="M352.88 554.59L352.88 554.59" stroke="hsl(0, 0%, 0%)" stroke-width="1.5"></path><path d="M699.46 687.17L699.46 687.17" stroke="hsl(0, 0%, 0%)" stroke-width="1.5"></path><path d="M699.46 687.17L848.51 511.92" stroke="hsl(0, 0%, 0%)" stroke-width="1.5"></path><path d="M851.8 370.15L851.8 370.15" stroke="hsl(0, 0%, 0%)" stroke-width="1.5"></path><path d="M851.8 370.15L848.51 511.92" stroke="hsl(0, 0%, 0%)" stroke-width="1.5"></path><path d="M851.8 370.15L939.35 499.25" stroke="hsl(0, 0%, 0%)" stroke-width="1.5"></path><path d="M851.8 370.15L998.75 230.24" stroke="hsl(0, 0%, 0%)" stroke-width="1.5"></path><path d="M851.8 370.15L675.05 506.79" stroke="hsl(0, 0%, 0%)" stroke-width="1.5"></path><path d="M848.51 511.92L848.51 511.92" stroke="hsl(0, 0%, 0%)" stroke-width="1.5"></path><path d="M848.51 511.92L939.35 499.25" stroke="hsl(0, 0%, 0%)" stroke-width="1.5"></path><path d="M998.75 230.24L998.75 230.24" stroke="hsl(0, 0%, 0%)" stroke-width="1.5"></path><path d="M998.75 230.24L1109.61 188.07" stroke="hsl(0, 0%, 0%)" stroke-width="1.5"></path><path d="M998.75 230.24L1110.02 355.47" stroke="hsl(0, 0%, 0%)" stroke-width="1.5"></path><path d="M939.35 499.25L939.35 499.25" stroke="hsl(0, 0%, 0%)" stroke-width="1.5"></path><path d="M1006.77 660.69L1006.77 660.69" stroke="hsl(0, 0%, 0%)" stroke-width="1.5"></path><path d="M1006.77 660.69L939.35 499.25" stroke="hsl(0, 0%, 0%)" stroke-width="1.5"></path><path d="M1006.77 660.69L848.51 511.92" stroke="hsl(0, 0%, 0%)" stroke-width="1.5"></path><path d="M1006.77 660.69L944.7 399.54" stroke="hsl(0, 0%, 0%)" stroke-width="1.5"></path><path d="M1109.61 188.07L1109.61 188.07" stroke="hsl(0, 0%, 0%)" stroke-width="1.5"></path><path d="M1110.02 355.47L1110.02 355.47" stroke="hsl(0, 0%, 0%)" stroke-width="1.5"></path><path d="M1110.02 355.47L1246.86 261.38" stroke="hsl(0, 0%, 0%)" stroke-width="1.5"></path><path d="M1110.02 355.47L1109.61 188.07" stroke="hsl(0, 0%, 0%)" stroke-width="1.5"></path><path d="M1273.92 -110.77L1273.92 -110.77" stroke="hsl(0, 0%, 0%)" stroke-width="1.5"></path><path d="M1273.92 -110.77L1246.49 44.7" stroke="hsl(0, 0%, 0%)" stroke-width="1.5"></path><path d="M1273.92 -110.77L1447.14 76.39" stroke="hsl(0, 0%, 0%)" stroke-width="1.5"></path><path d="M1273.92 -110.77L1540.43 -57.71" stroke="hsl(0, 0%, 0%)" stroke-width="1.5"></path><path d="M1246.49 44.7L1246.49 44.7" stroke="hsl(0, 0%, 0%)" stroke-width="1.5"></path><path d="M1246.49 44.7L1109.61 188.07" stroke="hsl(0, 0%, 0%)" stroke-width="1.5"></path><path d="M1246.49 44.7L1447.14 76.39" stroke="hsl(0, 0%, 0%)" stroke-width="1.5"></path><path d="M1246.49 44.7L1411.61 -81.67" stroke="hsl(0, 0%, 0%)" stroke-width="1.5"></path><path d="M1251.96 495.64L1251.96 495.64" stroke="hsl(0, 0%, 0%)" stroke-width="1.5"></path><path d="M1251.96 495.64L1420.1 514.92" stroke="hsl(0, 0%, 0%)" stroke-width="1.5"></path><path d="M1251.96 495.64L1404.59 409.98" stroke="hsl(0, 0%, 0%)" stroke-width="1.5"></path><path d="M1290.59 691.83L1290.59 691.83" stroke="hsl(0, 0%, 0%)" stroke-width="1.5"></path><path d="M1290.59 691.83L1446.39 662.29" stroke="hsl(0, 0%, 0%)" stroke-width="1.5"></path><path d="M1290.59 691.83L1251.96 495.64" stroke="hsl(0, 0%, 0%)" stroke-width="1.5"></path><path d="M1290.59 691.83L1420.1 514.92" stroke="hsl(0, 0%, 0%)" stroke-width="1.5"></path><path d="M1290.59 691.83L1006.77 660.69" stroke="hsl(0, 0%, 0%)" stroke-width="1.5"></path><path d="M1290.59 691.83L1404.59 409.98" stroke="hsl(0, 0%, 0%)" stroke-width="1.5"></path><path d="M1447.14 76.39L1447.14 76.39" stroke="hsl(0, 0%, 0%)" stroke-width="1.5"></path><path d="M1447.14 76.39L1462.23 205.12" stroke="hsl(0, 0%, 0%)" stroke-width="1.5"></path><path d="M1447.14 76.39L1607.62 68.21" stroke="hsl(0, 0%, 0%)" stroke-width="1.5"></path><path d="M1447.14 76.39L1411.61 -81.67" stroke="hsl(0, 0%, 0%)" stroke-width="1.5"></path><path d="M1462.23 205.12L1462.23 205.12" stroke="hsl(0, 0%, 0%)" stroke-width="1.5"></path><path d="M1462.23 205.12L1576.15 244.87" stroke="hsl(0, 0%, 0%)" stroke-width="1.5"></path><path d="M1420.1 514.92L1420.1 514.92" stroke="hsl(0, 0%, 0%)" stroke-width="1.5"></path><path d="M1420.1 514.92L1548.58 523.53" stroke="hsl(0, 0%, 0%)" stroke-width="1.5"></path><path d="M1446.39 662.29L1446.39 662.29" stroke="hsl(0, 0%, 0%)" stroke-width="1.5"></path><path d="M1446.39 662.29L1420.1 514.92" stroke="hsl(0, 0%, 0%)" stroke-width="1.5"></path><path d="M1446.39 662.29L1598.56 699.81" stroke="hsl(0, 0%, 0%)" stroke-width="1.5"></path><path d="M1540.43 -57.71L1540.43 -57.71" stroke="hsl(0, 0%, 0%)" stroke-width="1.5"></path><path d="M1540.43 -57.71L1607.62 68.21" stroke="hsl(0, 0%, 0%)" stroke-width="1.5"></path><path d="M1540.43 -57.71L1447.14 76.39" stroke="hsl(0, 0%, 0%)" stroke-width="1.5"></path><path d="M1540.43 -57.71L1462.23 205.12" stroke="hsl(0, 0%, 0%)" stroke-width="1.5"></path><path d="M1540.43 -57.71L1576.15 244.87" stroke="hsl(0, 0%, 0%)" stroke-width="1.5"></path><path d="M1607.62 68.21L1607.62 68.21" stroke="hsl(0, 0%, 0%)" stroke-width="1.5"></path><path d="M1607.62 68.21L1576.15 244.87" stroke="hsl(0, 0%, 0%)" stroke-width="1.5"></path><path d="M1607.62 68.21L1462.23 205.12" stroke="hsl(0, 0%, 0%)" stroke-width="1.5"></path><path d="M1607.62 68.21L1411.61 -81.67" stroke="hsl(0, 0%, 0%)" stroke-width="1.5"></path><path d="M1576.15 244.87L1576.15 244.87" stroke="hsl(0, 0%, 0%)" stroke-width="1.5"></path><path d="M1548.58 523.53L1548.58 523.53" stroke="hsl(0, 0%, 0%)" stroke-width="1.5"></path><path d="M1598.56 699.81L1598.56 699.81" stroke="hsl(0, 0%, 0%)" stroke-width="1.5"></path><path d="M1598.56 699.81L1548.58 523.53" stroke="hsl(0, 0%, 0%)" stroke-width="1.5"></path><path d="M1598.56 699.81L1420.1 514.92" stroke="hsl(0, 0%, 0%)" stroke-width="1.5"></path><circle r="25" cx="343.25" cy="697.67" fill="url(#SvgjsRadialGradient1005)"></circle><circle r="25" cx="510.82" cy="529.79" fill="url(#SvgjsRadialGradient1005)"></circle><circle r="25" cx="538.07" cy="666.01" fill="url(#SvgjsRadialGradient1005)"></circle><circle r="25" cx="666.1" cy="388.98" fill="url(#SvgjsRadialGradient1005)"></circle><circle r="25" cx="675.05" cy="506.79" fill="url(#SvgjsRadialGradient1005)"></circle><circle r="25" cx="944.7" cy="399.54" fill="url(#SvgjsRadialGradient1005)"></circle><circle r="25" cx="1142.2" cy="73.81" fill="url(#SvgjsRadialGradient1005)"></circle><circle r="25" cx="1142.8" cy="693.03" fill="url(#SvgjsRadialGradient1005)"></circle><circle r="25" cx="1246.86" cy="261.38" fill="url(#SvgjsRadialGradient1005)"></circle><circle r="25" cx="1292.36" cy="347.63" fill="url(#SvgjsRadialGradient1005)"></circle><circle r="25" cx="1411.61" cy="-81.67" fill="url(#SvgjsRadialGradient1005)"></circle><circle r="25" cx="1404.59" cy="409.98" fill="url(#SvgjsRadialGradient1005)"></circle><circle r="25" cx="1551.93" cy="387.56" fill="url(#SvgjsRadialGradient1005)"></circle><circle r="5" cx="-98.89" cy="536.48" fill="#808080"></circle><circle r="5" cx="-56.11" cy="669.04" fill="#808080"></circle><circle r="5" cx="84.61" cy="512.11" fill="#808080"></circle><circle r="5" cx="57.03" cy="653.74" fill="#808080"></circle><circle r="5" cx="256.58" cy="503.73" fill="#808080"></circle><circle r="5" cx="216.61" cy="669.88" fill="#808080"></circle><circle r="5" cx="352.88" cy="554.59" fill="#808080"></circle><circle r="5" cx="699.46" cy="687.17" fill="#808080"></circle><circle r="5" cx="851.8" cy="370.15" fill="#808080"></circle><circle r="5" cx="848.51" cy="511.92" fill="#808080"></circle><circle r="5" cx="998.75" cy="230.24" fill="#808080"></circle><circle r="5" cx="939.35" cy="499.25" fill="#808080"></circle><circle r="5" cx="1006.77" cy="660.69" fill="#808080"></circle><circle r="5" cx="1109.61" cy="188.07" fill="#808080"></circle><circle r="5" cx="1110.02" cy="355.47" fill="#808080"></circle><circle r="5" cx="1273.92" cy="-110.77" fill="#808080"></circle><circle r="5" cx="1246.49" cy="44.7" fill="#808080"></circle><circle r="5" cx="1251.96" cy="495.64" fill="#808080"></circle><circle r="5" cx="1290.59" cy="691.83" fill="#808080"></circle><circle r="5" cx="1447.14" cy="76.39" fill="#808080"></circle><circle r="5" cx="1462.23" cy="205.12" fill="#808080"></circle><circle r="5" cx="1420.1" cy="514.92" fill="#808080"></circle><circle r="5" cx="1446.39" cy="662.29" fill="#808080"></circle><circle r="5" cx="1540.43" cy="-57.71" fill="#808080"></circle><circle r="5" cx="1607.62" cy="68.21" fill="#808080"></circle><circle r="5" cx="1576.15" cy="244.87" fill="#808080"></circle><circle r="5" cx="1548.58" cy="523.53" fill="#808080"></circle><circle r="5" cx="1598.56" cy="699.81" fill="#808080"></circle></g><defs><mask id="SvgjsMask1004"><rect width="1440" height="560" fill="#ffffff"></rect></mask><radialGradient id="SvgjsRadialGradient1005"><stop stop-color="#ffffff" offset="0.1"></stop><stop stop-color="rgba(0, 0, 0, 1)" offset="0.2"></stop><stop stop-color="rgba(0, 0, 0, 0)" offset="1"></stop></radialGradient></defs></svg>